<?xml version="1.0" encoding="utf-8"?>
<!-- Generator: Adobe Illustrator 21.0.2, SVG Export Plug-In . SVG Version: 6.00 Build 0)  -->
<svg version="1.1" id="Layer_1" xmlns="http://www.w3.org/2000/svg" xmlns:xlink="http://www.w3.org/1999/xlink" x="0px" y="0px"
	 viewBox="0 0 498.9 291.4" style="enable-background:new 0 0 498.9 291.4;" xml:space="preserve">
<style type="text/css">
	.st0{enable-background:new    ;}
	.st1{fill:#333333;}
</style>
<title>hello-title</title>
<g class="st0">
	<path class="st1" d="M86.6,182.5l22.8-11.2l0.5-0.2c4.1-1.5,7-4,8.6-7.7c24.8-55.1,42.2-88.8,52.1-100.9c0.9-1.4,1.9-2.3,3-2.7
		c1.1-0.4,2.1-0.4,2.9,0c4.4,1.3,6.7,2.2,6.9,2.9c0.3,0.7,0.2,1.4-0.1,2c-26.3,55-38.9,84-37.7,87.2c0.3,0.8,1.1,0.9,2.3,0.5
		c9.5-3.3,14.8-4.6,16.1-4c1.3,0.6,2.9,0.7,4.9,0.3c2.5-0.9,6.7-1.4,12.5-1.5c5.8-0.1,9.3,1.4,10.4,4.3c0.3,0.8,0.1,1.4-0.5,1.9
		s-3.5,2.1-8.7,4.9c-5.2,2.8-11.9,6.3-20.1,10.5c-8.2,4.2-14.8,7.6-19.6,10.1c-4.9,2.5-8.2,4.3-10.1,5.4c-1.9,1.1-3,2.8-3.5,5.1
		c-12,38.1-19.9,65.7-23.6,82.8c0.3,1.8-0.3,3-1.9,3.6c-1.6,0.6-3.7-0.3-6.4-2.7c-2.7-2.4-4.7-5.4-6.1-9
		c-3.3-9.1,0.1-28.8,10.1-59.3c0.8-1.3,1-2.3,0.8-2.9c-0.1-0.3-0.5-0.4-1.1-0.1l-1.2,0.4l-28.7,16.3c-2.2,0.8-3.7,2.4-4.4,4.8
		c-10.5,36.1-16.2,57.3-17.2,63.7c0.2,2-0.5,3.4-2.1,4s-4.1,0.1-7.3-1.5c-3.2-1.6-5.4-3.9-6.6-7.1c-1.1-3.1-1.2-9.6-0.1-19.5
		c1.1-9.9,2.9-18.4,5.5-25.5c0.4-1.4,0.5-2.4,0.2-3c-0.2-0.6-0.9-0.7-2-0.3l-11.2,3.5c-2.7,0.8-7.4-0.2-14-3
		c-6.6-2.8-10.6-6-11.9-9.6c-0.5-1.4,0-2.4,1.6-3c11.7-2.8,19.6-5,23.6-6.5c4-1.5,12.7-6.1,26.2-13.8c1.2-1,2.5-3.2,3.9-6.8
		c29.4-66.4,47-100.6,52.8-102.8c0.9-0.3,2.4,0,4.5,1c2.1,1,3.2,2,3.6,2.8c0.3,0.9,0.3,1.7-0.1,2.6c-19.3,46.8-29.7,72.1-31.2,75.9
		c-1.5,3.8-2,6.2-1.6,7.2C83.8,183,84.8,183.2,86.6,182.5z"/>
	<path class="st1" d="M184.4,247.2c-12.1,4.4-20.8-0.8-26.1-15.5c-3.4-9.2-2.9-20.5,1.4-33.9c4.3-13.3,10.7-25.3,19.2-36
		c8.5-10.6,17-17.5,25.5-20.6c3.8-1.4,7.8-1.1,12.1,0.7c4.3,1.8,7,4.1,8,6.9c1.9,5.2,0.3,12.3-4.7,21.5c-5,9.2-10.8,17.2-17.4,24.2
		c-6.6,6.9-11.2,10.9-13.8,11.8c-2.6,0.9-4.9,0.5-7-1.4c-0.8-0.2-1.7-0.2-2.8,0.2c-1.1,0.4-2.1,3.1-3.1,8.2c-1,5.1-1,8.9-0.1,11.5
		s2.5,3.8,4.6,3.8c11.9-4.3,23.6-12.5,35-24.6c11.4-12,26.2-31.3,44.4-57.8c1.3-1.9,3.2-4.7,5.8-8.5c2.6-3.8,4.1-6,4.6-6.7
		c1.8,0.6,3,1.7,3.6,3.2c0.6,1.6,0.4,3.2-0.6,5c-5,10.7-11.9,23.1-20.8,37.4c-8.9,14.2-19.9,28.6-32.8,43.2
		C206.1,234.4,194.5,243.5,184.4,247.2z M207,153.9c-4.1,1.5-9.4,8.2-16.1,20.1c-6.7,11.9-9.6,18.8-9,20.7c0.1,0.3,0.4,0.4,0.9,0.2
		c3.4-1.3,8.9-7.6,16.4-19c7.5-11.4,10.7-18.5,9.7-21.3C208.6,153.7,208,153.5,207,153.9z"/>
	<path class="st1" d="M271.4,193.2c5.2-1.9,13.7-10.2,25.6-25c11.9-14.8,22.4-29.1,31.6-42.9l14-20.8c1.8,0.6,3,1.7,3.6,3.2
		c0.6,1.6,0.3,3.3-0.7,5.3c-1.1,2-2.5,4.8-4.5,8.5c-1.9,3.7-5.7,10.5-11.3,20.4c-5.6,9.9-11,18.9-15.9,27.1
		c-13.1,21.6-23.5,35.3-31.3,41.2c-2.5,1.8-5.3,3.3-8.3,4.3c-3,1.1-5.4,1.7-7.3,1.9c-1.9,0.2-4.1-0.2-6.8-1
		c-5.3-2-10.2-8.9-14.5-20.8c-1.2-3.3-1.6-8.8-1.2-16.6c0.4-7.8,2.1-17.6,5.1-29.5c3-11.9,7.1-24.2,12.4-37
		c5.2-12.7,12.8-26.3,22.7-40.7c9.9-14.4,21.4-27.4,34.4-38.9c2.1-1.6,4-2.8,5.9-3.5c1.9-0.7,3.9-0.5,6.1,0.6
		c2.2,1.1,3.9,2.4,5.1,3.9l2,1.9c1.3,3.6-1.4,13.5-8,29.8c-6.8,16.8-15.6,33.7-26.4,50.7c-10.8,17-21.1,31.8-31,44.7
		c-8,10.7-10.6,19.8-7.9,27.3C266.5,192.3,268.7,194.2,271.4,193.2z M274.8,136.9c3.9-1.4,12.3-15.4,25.1-41.8
		c12.8-26.5,18.8-40.8,18-43l-0.4-0.4l-3.3,3.3c-6.2,8.3-13.7,21.3-22.6,39.1c-8.9,17.8-14.6,31.2-17.1,40.3c-0.3,1-0.4,1.7-0.3,2.1
		C274.3,136.9,274.5,137,274.8,136.9z"/>
	<path class="st1" d="M348.7,165.1c5.2-1.9,13.7-10.2,25.6-25c11.9-14.8,22.4-29.1,31.6-42.9l14-20.8c1.8,0.6,3,1.7,3.6,3.2
		c0.6,1.6,0.3,3.3-0.7,5.3c-1.1,2-2.5,4.8-4.5,8.5c-1.9,3.7-5.7,10.5-11.3,20.4c-5.6,9.9-11,18.9-15.9,27.1
		c-13.1,21.6-23.5,35.3-31.3,41.2c-2.5,1.8-5.3,3.3-8.3,4.3c-3,1.1-5.4,1.7-7.3,1.9c-1.9,0.2-4.1-0.2-6.8-1
		c-5.3-2-10.2-8.9-14.5-20.8c-1.2-3.3-1.6-8.8-1.2-16.6c0.4-7.8,2.1-17.6,5.1-29.5c3-11.9,7.1-24.2,12.4-37
		c5.2-12.7,12.8-26.3,22.7-40.7c9.9-14.4,21.4-27.4,34.4-38.9c2.1-1.6,4-2.8,5.9-3.5c1.9-0.7,3.9-0.5,6.1,0.6
		c2.2,1.1,3.9,2.4,5.1,3.9l2,1.9c1.3,3.6-1.4,13.5-8,29.8c-6.8,16.8-15.6,33.7-26.4,50.7c-10.8,17-21.1,31.8-31,44.7
		c-8,10.7-10.6,19.8-7.9,27.3C343.8,164.1,346,166.1,348.7,165.1z M352.1,108.8c3.9-1.4,12.3-15.4,25.1-41.8
		c12.8-26.5,18.8-40.8,18-43l-0.4-0.4l-3.3,3.3c-6.2,8.3-13.7,21.3-22.6,39.1c-8.9,17.8-14.6,31.2-17.1,40.3c-0.3,1-0.4,1.7-0.3,2.1
		C351.6,108.7,351.8,108.9,352.1,108.8z"/>
	<path class="st1" d="M451,102.8c4.4-1.6,10.3-6.8,17.6-15.5c7.4-8.7,13.6-17,18.7-24.9l7.6-12.1c1.8,0.6,3,1.7,3.6,3.2
		c0.6,1.6,0.4,3.2-0.6,5c-17.1,33.4-32.3,52.5-45.6,57.3c-0.9,0.3-2.4,0.7-4.4,1.1c-10.2,27-21.7,42.7-34.4,47.4
		c-8.9,1.8-15.3,0.8-19.2-3.1c-2.1-1.9-3.8-4.6-5.1-8.2c-3.8-10.3-2.3-24.8,4.4-43.5c6.7-18.7,17.8-34.6,33.4-47.9
		c1.6-0.6,2.9-0.6,3.9-0.2c1,0.4,1.9,0.6,2.5,0.4c0.7-0.1,1.4-0.8,2.1-1.8c0.8-1.1,2-2,3.7-2.7c1.7-0.7,3.9-0.4,6.5,1
		c3.2,1.1,5.4,3.2,6.5,6.1C455.4,73.1,455,85.9,451,102.8z M409.7,148.7c5-1.8,10-7.4,15-16.6c5-9.3,7.1-15.2,6.6-17.8
		c-2.4-0.9-5.5-3-9.1-6.4c-3.6-3.4-5.5-5-5.7-5c-3.2,6.3-5.6,13.1-7.2,20.4c-2.3,12.2-2.8,20.2-1.4,23.9
		C408.3,148.5,409,149,409.7,148.7z M439.5,72.7c-1.6,0.6-3.9,4.2-7.1,10.8c-3.2,6.7-4.4,10.9-3.7,12.8c0.2,0.5,1,1.2,2.4,2.3
		c1.5,1.1,2.4,1.5,2.9,1.3c2.7-1,4.5-5.3,5.5-12.9c1-7.6,1.4-12,1-13C440.2,73,439.8,72.6,439.5,72.7z"/>
</g>
</svg>
