<?xml version="1.0" encoding="utf-8"?>
<!-- Generator: Adobe Illustrator 21.0.2, SVG Export Plug-In . SVG Version: 6.00 Build 0)  -->
<svg version="1.1" id="Layer_1" xmlns="http://www.w3.org/2000/svg" xmlns:xlink="http://www.w3.org/1999/xlink" x="0px" y="0px"
	 viewBox="0 0 111.6 73.5" style="enable-background:new 0 0 111.6 73.5;" xml:space="preserve">
<style type="text/css">
	.st0{clip-path:url(#SVGID_2_);fill:#DC4498;}
	.st1{fill:#262422;}
	.st2{display:none;}
	.st3{display:inline;fill:#0A0401;}
	.st4{display:inline;fill:#0DC9FF;}
</style>
<g>
	<g>
		<defs>
			<rect id="SVGID_1_" x="0.5" y="-7" width="113" height="81.5"/>
		</defs>
		<clipPath id="SVGID_2_">
			<use xlink:href="#SVGID_1_"  style="overflow:visible;"/>
		</clipPath>
		<path class="st0" d="M57,73.5c20.3,0,36.8-16.5,36.8-36.8S77.3,0,57,0S20.3,16.5,20.3,36.8S36.7,73.5,57,73.5"/>
	</g>
</g>
<g>
	<path class="st1" d="M59.6,29.9c-1.1,0.2-2.1,0.3-3.2,0.5c-2.5,0.4-5.1,0.9-7.6,1.3c-1.5,0.3-3,0.6-4.5,0.8
		c-0.5,0.1-1.1,0.2-1.6,0.3c-1.2,0.1-2.2,0.6-3.2,1.1c-5,2.8-9.8,5.8-14.3,9.2c-1.3,1-2.5,2.2-3.8,3.1c-1.2,0.8-2.2,1.8-3.2,2.8
		c-1,1.1-2,2.2-2.9,3.3c-1.1,1.3-2.2,2.7-3.7,3.7c-0.2,0.1-0.4,0.2-0.8,0.3c0.1-1,0.5-1.6,0.9-2.3c1.3-2.3,2.7-4.4,4.5-6.4
		c1.3-1.4,2.7-2.7,4.2-3.9c0.8-0.8,1.7-1.5,2.6-2.2c1.9-1.5,3.9-2.9,5.9-4.3c1.2-0.9,2.5-1.7,3.8-2.6c-0.2,0-0.3-0.1-0.4-0.1
		c-2.4,0.5-4.9,1-7.3,1.4c-3.8,0.7-7.6,1.3-11.4,2c-2.1,0.4-4.1,0.7-6.2,1.1c-1.6,0.3-3.3,0.6-4.9,0.8c-0.5,0.1-1,0-1.5-0.1
		c0.6-0.5,1.4-0.7,2.1-0.8c3.8-0.8,7.7-1.6,11.5-2.4c3.9-0.8,7.7-1.7,11.5-2.6c3.9-0.9,7.9-1.7,11.8-2.6c0.5-0.1,0.9-0.3,1.4-0.5
		c1.8-0.8,3.5-1.7,5.3-2.6c3.9-1.9,7.9-3.6,11.9-5.1c2.4-0.9,4.9-1.7,7.3-2.6c0.2-0.1,0.5-0.2,0.8-0.3c-0.3-0.3-0.6-0.2-0.9-0.2
		c-3.3,0.5-6.6,1-9.9,1.5c-3.8,0.6-7.6,1.3-11.4,1.9c-3,0.5-5.9,0.9-8.9,1.4c-3.2,0.5-6.4,1-9.6,1.5c-2.4,0.4-4.9,0.6-7.4,1
		c-2.1,0.3-4.2,0.7-6.3,1C8.7,29,7,29.3,5.3,29.6c-0.3,0.1-0.7,0.1-1-0.2c0.2-0.5,0.7-0.6,1.2-0.7c1.2-0.3,2.5-0.5,3.7-0.8
		c3.7-0.8,7.3-1.5,11-2.3c3.9-0.7,7.8-1.4,11.6-2.1c3.2-0.6,6.4-1.2,9.6-1.7c3.1-0.5,6.2-1.1,9.3-1.6c2.8-0.5,5.7-0.9,8.5-1.3
		c2-0.3,4-0.5,6-0.8c1.2-0.2,2.4-0.4,3.7-0.5c0.9-0.1,1.9-0.2,2.8-0.2c1.1-0.1,2.1-0.2,3.2-0.2c0.4,0,0.9,0.2,1.2,0.2
		c0.3,1.2,0.1,1.6-0.9,2c-0.9,0.3-1.9,0.6-2.8,0.9c-4.9,1.7-9.7,3.4-14.6,5.2c-2.4,0.9-4.7,2-7.1,3c-0.6,0.3-1.2,0.5-1.8,0.9
		c0.2,0,0.3,0,0.5,0c2.7-0.5,5.4-1,8.2-1.5c1.9-0.3,3.8-0.7,5.7-1c2.1-0.4,4.2-0.7,6.4-1.1c2.1-0.3,4.2-0.7,6.4-1
		c1.7-0.3,3.3-0.5,5-0.9c2.4-0.5,4.7-1,7.1-1.5c2.6-0.5,5.2-0.9,7.8-1.3c1.3-0.2,2.7-0.4,4.1-0.5c1.7-0.1,3.5-0.2,5.2-0.2
		c0.8,0,1.3,0.4,1.4,1c0.1,0.6-0.1,1-0.8,1.1c-1,0.2-2.1,0.4-3.2,0.6c-2.7,0.4-5.3,0.9-8,1.3c-1.9,0.3-3.8,0.5-5.7,0.8
		c-1.4,0.2-2.8,0.5-4.2,0.7c-4.4,0.6-8.6,2-12.8,3.2c-3.2,0.9-6.3,1.9-9.4,3c-3.7,1.2-7.4,2.4-11.1,3.7c-2,0.7-4,1.5-6,2.3
		c-2,0.8-4,1.5-6,2.4c-2.5,1.1-4.9,2.3-7.3,3.5c-0.6,0.3-1.2,0.7-1.8,1c0.3,0.4,0.7,0.4,1,0.4c1.7,0,3.4,0.1,5.1,0
		c2-0.1,4.1-0.4,6.1-0.5c1.5-0.1,2.9-0.2,4.4-0.4c1.4-0.2,2.8-0.4,4.2-0.5c1.3-0.2,2.6-0.3,3.9-0.4c1.2-0.1,2.3-0.3,3.5-0.5
		c1.3-0.2,2.6-0.3,4-0.5c1.5-0.2,3-0.5,4.5-0.7c1.7-0.2,3.4-0.5,5.1-0.7c1.2-0.2,2.3-0.3,3.5-0.5c1.3-0.2,2.6-0.3,3.9-0.5
		c1.4-0.2,2.8-0.4,4.2-0.5c1.3-0.2,2.5-0.3,3.8-0.4c1.9-0.2,3.7-0.5,5.6-0.7c1.3-0.2,2.5-0.3,3.8-0.5c1.5-0.2,2.9-0.4,4.4-0.5
		c1.4-0.2,2.7-0.3,4.1-0.4c1.1-0.1,2.3-0.3,3.4-0.5c0.9-0.1,1.7-0.2,2.6-0.3c0.1,0,0.3,0.1,0.5,0.3c-0.9,0.2-1.8,0.5-2.7,0.6
		c-3.1,0.6-6.1,1.2-9.2,1.8c-3,0.6-6.1,1.1-9.1,1.7c-2.6,0.5-5.2,1-7.9,1.5c-2.8,0.5-5.6,1-8.4,1.4c-2.4,0.4-4.8,0.8-7.1,1.1
		c-1.7,0.2-3.4,0.4-5.1,0.6c-1.8,0.2-3.6,0.5-5.4,0.7c-1.4,0.2-2.7,0.3-4.1,0.4c-1.5,0.2-2.9,0.4-4.4,0.5c-0.7,0.1-1.4,0.1-2,0.2
		c-1,0.1-2,0.1-3,0.2c-1.3,0.1-2.7,0.2-4,0.3c-0.3,0-0.5,0-0.8,0c-2.2,0-4.3,0.1-6.5,0c-1.2-0.1-2.4-0.3-3.7-0.6
		c-0.5-0.1-1-0.3-1.3-0.8c-0.6-0.9-0.3-1.9,0.6-2.7c1.6-1.3,3.3-2.3,5.1-3.2c4.9-2.4,9.9-4.6,15-6.4c3.8-1.3,7.6-2.6,11.4-4
		C59.3,30.2,59.5,30.1,59.6,29.9C59.7,30,59.6,29.9,59.6,29.9C59.6,30,59.6,30,59.6,29.9c0.1,0,0.3,0,0.4,0c0,0,0-0.1,0-0.1
		C59.9,29.8,59.8,29.9,59.6,29.9z"/>
</g>
<g class="st2">
	<path class="st3" d="M59.6,29.9c-1.1,0.2-2.1,0.3-3.2,0.5c-2.5,0.4-5.1,0.9-7.6,1.3c-1.5,0.3-3,0.6-4.5,0.8
		c-0.5,0.1-1.1,0.2-1.6,0.3c-1.2,0.1-2.2,0.6-3.2,1.1c-5,2.8-9.8,5.8-14.3,9.2c-1.3,1-2.5,2.2-3.8,3.1c-1.2,0.8-2.2,1.8-3.2,2.8
		c-1,1.1-2,2.2-2.9,3.3c-1.1,1.3-2.2,2.7-3.7,3.7c-0.2,0.1-0.4,0.2-0.8,0.3c0.1-1,0.5-1.6,0.9-2.3c1.3-2.3,2.7-4.4,4.5-6.4
		c1.3-1.4,2.7-2.7,4.2-3.9c0.8-0.8,1.7-1.5,2.6-2.2c1.9-1.5,3.9-2.9,5.9-4.3c1.2-0.9,2.5-1.7,3.8-2.6c-0.2,0-0.3-0.1-0.4-0.1
		c-2.4,0.5-4.9,1-7.3,1.4c-3.8,0.7-7.6,1.3-11.4,2c-2.1,0.4-4.1,0.7-6.2,1.1c-1.6,0.3-3.3,0.6-4.9,0.8c-0.5,0.1-1,0-1.5-0.1
		c0.6-0.5,1.4-0.7,2.1-0.8c3.8-0.8,7.7-1.6,11.5-2.4c3.9-0.8,7.7-1.7,11.5-2.6c3.9-0.9,7.9-1.7,11.8-2.6c0.5-0.1,0.9-0.3,1.4-0.5
		c1.8-0.8,3.5-1.7,5.3-2.6c3.9-1.9,7.9-3.6,11.9-5.1c2.4-0.9,4.9-1.7,7.3-2.6c0.2-0.1,0.5-0.2,0.8-0.3c-0.3-0.3-0.6-0.2-0.9-0.2
		c-3.3,0.5-6.6,1-9.9,1.5c-3.8,0.6-7.6,1.3-11.4,1.9c-3,0.5-5.9,0.9-8.9,1.4c-3.2,0.5-6.4,1-9.6,1.5c-2.4,0.4-4.9,0.6-7.4,1
		c-2.1,0.3-4.2,0.7-6.3,1C8.7,29,7,29.3,5.3,29.6c-0.3,0.1-0.7,0.1-1-0.2c0.2-0.5,0.7-0.6,1.2-0.7c1.2-0.3,2.5-0.5,3.7-0.8
		c3.7-0.8,7.3-1.5,11-2.3c3.9-0.7,7.8-1.4,11.6-2.1c3.2-0.6,6.4-1.2,9.6-1.7c3.1-0.5,6.2-1.1,9.3-1.6c2.8-0.5,5.7-0.9,8.5-1.3
		c2-0.3,4-0.5,6-0.8c1.2-0.2,2.4-0.4,3.7-0.5c0.9-0.1,1.9-0.2,2.8-0.2c1.1-0.1,2.1-0.2,3.2-0.2c0.4,0,0.9,0.2,1.2,0.2
		c0.3,1.2,0.1,1.6-0.9,2c-0.9,0.3-1.9,0.6-2.8,0.9c-4.9,1.7-9.7,3.4-14.6,5.2c-2.4,0.9-4.7,2-7.1,3c-0.6,0.3-1.2,0.5-1.8,0.9
		c0.2,0,0.3,0,0.5,0c2.7-0.5,5.4-1,8.2-1.5c1.9-0.3,3.8-0.7,5.7-1c2.1-0.4,4.2-0.7,6.4-1.1c2.1-0.3,4.2-0.7,6.4-1
		c1.7-0.3,3.3-0.5,5-0.9c2.4-0.5,4.7-1,7.1-1.5c2.6-0.5,5.2-0.9,7.8-1.3c1.3-0.2,2.7-0.4,4.1-0.5c1.7-0.1,3.5-0.2,5.2-0.2
		c0.8,0,1.3,0.4,1.4,1c0.1,0.6-0.1,1-0.8,1.1c-1,0.2-2.1,0.4-3.2,0.6c-2.7,0.4-5.3,0.9-8,1.3c-1.9,0.3-3.8,0.5-5.7,0.8
		c-1.4,0.2-2.8,0.5-4.2,0.7c-4.4,0.6-8.6,2-12.8,3.2c-3.2,0.9-6.3,1.9-9.4,3c-3.7,1.2-7.4,2.4-11.1,3.7c-2,0.7-4,1.5-6,2.3
		c-2,0.8-4,1.5-6,2.4c-2.5,1.1-4.9,2.3-7.3,3.5c-0.6,0.3-1.2,0.7-1.8,1c0.3,0.4,0.7,0.4,1,0.4c1.7,0,3.4,0.1,5.1,0
		c2-0.1,4.1-0.4,6.1-0.5c1.5-0.1,2.9-0.2,4.4-0.4c1.4-0.2,2.8-0.4,4.2-0.5c1.3-0.2,2.6-0.3,3.9-0.4c1.2-0.1,2.3-0.3,3.5-0.5
		c1.3-0.2,2.6-0.3,4-0.5c1.5-0.2,3-0.5,4.5-0.7c1.7-0.2,3.4-0.5,5.1-0.7c1.2-0.2,2.3-0.3,3.5-0.5c1.3-0.2,2.6-0.3,3.9-0.5
		c1.4-0.2,2.8-0.4,4.2-0.5c1.3-0.2,2.5-0.3,3.8-0.4c1.9-0.2,3.7-0.5,5.6-0.7c1.3-0.2,2.5-0.3,3.8-0.5c1.5-0.2,2.9-0.4,4.4-0.5
		c1.4-0.2,2.7-0.3,4.1-0.4c1.1-0.1,2.3-0.3,3.4-0.5c0.9-0.1,1.7-0.2,2.6-0.3c0.1,0,0.3,0.1,0.5,0.3c-0.9,0.2-1.8,0.5-2.7,0.6
		c-3.1,0.6-6.1,1.2-9.2,1.8c-3,0.6-6.1,1.1-9.1,1.7c-2.6,0.5-5.2,1-7.9,1.5c-2.8,0.5-5.6,1-8.4,1.4c-2.4,0.4-4.8,0.8-7.1,1.1
		c-1.7,0.2-3.4,0.4-5.1,0.6c-1.8,0.2-3.6,0.5-5.4,0.7c-1.4,0.2-2.7,0.3-4.1,0.4c-1.5,0.2-2.9,0.4-4.4,0.5c-0.7,0.1-1.4,0.1-2,0.2
		c-1,0.1-2,0.1-3,0.2c-1.3,0.1-2.7,0.2-4,0.3c-0.3,0-0.5,0-0.8,0c-2.2,0-4.3,0.1-6.5,0c-1.2-0.1-2.4-0.3-3.7-0.6
		c-0.5-0.1-1-0.3-1.3-0.8c-0.6-0.9-0.3-1.9,0.6-2.7c1.6-1.3,3.3-2.3,5.1-3.2c4.9-2.4,9.9-4.6,15-6.4c3.8-1.3,7.6-2.6,11.4-4
		C59.3,30.2,59.5,30.1,59.6,29.9C59.7,30,59.6,29.9,59.6,29.9C59.6,30,59.6,30,59.6,29.9c0.1,0,0.3,0,0.4,0c0,0,0-0.1,0-0.1
		C59.9,29.8,59.8,29.9,59.6,29.9z"/>
</g>
<g class="st2">
	<path class="st4" d="M58.6,28.9c-1.1,0.2-2.1,0.3-3.2,0.5c-2.5,0.4-5.1,0.9-7.6,1.3c-1.5,0.3-3,0.6-4.5,0.8
		c-0.5,0.1-1.1,0.2-1.6,0.3c-1.2,0.1-2.2,0.6-3.2,1.1c-5,2.8-9.8,5.8-14.3,9.2c-1.3,1-2.5,2.2-3.8,3.1c-1.2,0.8-2.2,1.8-3.2,2.8
		c-1,1.1-2,2.2-2.9,3.3c-1.1,1.3-2.2,2.7-3.7,3.7c-0.2,0.1-0.4,0.2-0.8,0.3c0.1-1,0.5-1.6,0.9-2.3c1.3-2.3,2.7-4.4,4.5-6.4
		c1.3-1.4,2.7-2.7,4.2-3.9c0.8-0.8,1.7-1.5,2.6-2.2c1.9-1.5,3.9-2.9,5.9-4.3c1.2-0.9,2.5-1.7,3.8-2.6c-0.2,0-0.3-0.1-0.4-0.1
		c-2.4,0.5-4.9,1-7.3,1.4c-3.8,0.7-7.6,1.3-11.4,2c-2.1,0.4-4.1,0.7-6.2,1.1c-1.6,0.3-3.3,0.6-4.9,0.8c-0.5,0.1-1,0-1.5-0.1
		c0.6-0.5,1.4-0.7,2.1-0.8c3.8-0.8,7.7-1.6,11.5-2.4c3.9-0.8,7.7-1.7,11.5-2.6c3.9-0.9,7.9-1.7,11.8-2.6c0.5-0.1,0.9-0.3,1.4-0.5
		c1.8-0.8,3.5-1.7,5.3-2.6c3.9-1.9,7.9-3.6,11.9-5.1c2.4-0.9,4.9-1.7,7.3-2.6c0.2-0.1,0.5-0.2,0.8-0.3c-0.3-0.3-0.6-0.2-0.9-0.2
		c-3.3,0.5-6.6,1-9.9,1.5c-3.8,0.6-7.6,1.3-11.4,1.9c-3,0.5-5.9,0.9-8.9,1.4c-3.2,0.5-6.4,1-9.6,1.5c-2.4,0.4-4.9,0.6-7.4,1
		c-2.1,0.3-4.2,0.7-6.3,1C7.7,28,6,28.3,4.3,28.6c-0.3,0.1-0.7,0.1-1-0.2c0.2-0.5,0.7-0.6,1.2-0.7c1.2-0.3,2.5-0.5,3.7-0.8
		c3.7-0.8,7.3-1.5,11-2.3c3.9-0.7,7.8-1.4,11.6-2.1c3.2-0.6,6.4-1.2,9.6-1.7c3.1-0.5,6.2-1.1,9.3-1.6c2.8-0.5,5.7-0.9,8.5-1.3
		c2-0.3,4-0.5,6-0.8c1.2-0.2,2.4-0.4,3.7-0.5c0.9-0.1,1.9-0.2,2.8-0.2c1.1-0.1,2.1-0.2,3.2-0.2c0.4,0,0.9,0.2,1.2,0.2
		c0.3,1.2,0.1,1.6-0.9,2c-0.9,0.3-1.9,0.6-2.8,0.9c-4.9,1.7-9.7,3.4-14.6,5.2c-2.4,0.9-4.7,2-7.1,3c-0.6,0.3-1.2,0.5-1.8,0.9
		c0.2,0,0.3,0,0.5,0c2.7-0.5,5.4-1,8.2-1.5c1.9-0.3,3.8-0.7,5.7-1c2.1-0.4,4.2-0.7,6.4-1.1c2.1-0.3,4.2-0.7,6.4-1
		c1.7-0.3,3.3-0.5,5-0.9c2.4-0.5,4.7-1,7.1-1.5c2.6-0.5,5.2-0.9,7.8-1.3c1.3-0.2,2.7-0.4,4.1-0.5c1.7-0.1,3.5-0.2,5.2-0.2
		c0.8,0,1.3,0.4,1.4,1c0.1,0.6-0.1,1-0.8,1.1c-1,0.2-2.1,0.4-3.2,0.6c-2.7,0.4-5.3,0.9-8,1.3c-1.9,0.3-3.8,0.5-5.7,0.8
		c-1.4,0.2-2.8,0.5-4.2,0.7c-4.4,0.6-8.6,2-12.8,3.2c-3.2,0.9-6.3,1.9-9.4,3c-3.7,1.2-7.4,2.4-11.1,3.7c-2,0.7-4,1.5-6,2.3
		c-2,0.8-4,1.5-6,2.4c-2.5,1.1-4.9,2.3-7.3,3.5c-0.6,0.3-1.2,0.7-1.8,1c0.3,0.4,0.7,0.4,1,0.4c1.7,0,3.4,0.1,5.1,0
		c2-0.1,4.1-0.4,6.1-0.5c1.5-0.1,2.9-0.2,4.4-0.4c1.4-0.2,2.8-0.4,4.2-0.5c1.3-0.2,2.6-0.3,3.9-0.4c1.2-0.1,2.3-0.3,3.5-0.5
		c1.3-0.2,2.6-0.3,4-0.5c1.5-0.2,3-0.5,4.5-0.7c1.7-0.2,3.4-0.5,5.1-0.7c1.2-0.2,2.3-0.3,3.5-0.5c1.3-0.2,2.6-0.3,3.9-0.5
		c1.4-0.2,2.8-0.4,4.2-0.5c1.3-0.2,2.5-0.3,3.8-0.4c1.9-0.2,3.7-0.5,5.6-0.7c1.3-0.2,2.5-0.3,3.8-0.5c1.5-0.2,2.9-0.4,4.4-0.5
		c1.4-0.2,2.7-0.3,4.1-0.4c1.1-0.1,2.3-0.3,3.4-0.5c0.9-0.1,1.7-0.2,2.6-0.3c0.1,0,0.3,0.1,0.5,0.3c-0.9,0.2-1.8,0.5-2.7,0.6
		c-3.1,0.6-6.1,1.2-9.2,1.8c-3,0.6-6.1,1.1-9.1,1.7c-2.6,0.5-5.2,1-7.9,1.5c-2.8,0.5-5.6,1-8.4,1.4c-2.4,0.4-4.8,0.8-7.1,1.1
		c-1.7,0.2-3.4,0.4-5.1,0.6c-1.8,0.2-3.6,0.5-5.4,0.7c-1.4,0.2-2.7,0.3-4.1,0.4c-1.5,0.2-2.9,0.4-4.4,0.5c-0.7,0.1-1.4,0.1-2,0.2
		c-1,0.1-2,0.1-3,0.2c-1.3,0.1-2.7,0.2-4,0.3c-0.3,0-0.5,0-0.8,0c-2.2,0-4.3,0.1-6.5,0c-1.2-0.1-2.4-0.3-3.7-0.6
		c-0.5-0.1-1-0.3-1.3-0.8c-0.6-0.9-0.3-1.9,0.6-2.7c1.6-1.3,3.3-2.3,5.1-3.2c4.9-2.4,9.9-4.6,15-6.4c3.8-1.3,7.6-2.6,11.4-4
		C58.3,29.2,58.5,29.1,58.6,28.9C58.7,29,58.6,28.9,58.6,28.9C58.6,29,58.6,29,58.6,28.9c0.1,0,0.3,0,0.4,0c0,0,0-0.1,0-0.1
		C58.9,28.8,58.8,28.9,58.6,28.9z"/>
</g>
</svg>
