<?xml version="1.0" encoding="utf-8"?>
<!-- Generator: Adobe Illustrator 21.0.2, SVG Export Plug-In . SVG Version: 6.00 Build 0)  -->
<svg version="1.1" id="Layer_1" xmlns="http://www.w3.org/2000/svg" xmlns:xlink="http://www.w3.org/1999/xlink" x="0px" y="0px"
	 viewBox="0 0 110.6 73.5" style="enable-background:new 0 0 110.6 73.5;" xml:space="preserve">
<style type="text/css">
	.st0{clip-path:url(#SVGID_2_);fill:none;stroke:#000000;stroke-miterlimit:10;}
	.st1{fill:#FFFFFF;stroke:#262422;stroke-width:0.5;stroke-miterlimit:10;}
</style>
<title>logo</title>
<g>
	<defs>
		<rect id="SVGID_1_" x="-0.5" y="-7" width="113" height="81.5"/>
	</defs>
	<clipPath id="SVGID_2_">
		<use xlink:href="#SVGID_1_"  style="overflow:visible;"/>
	</clipPath>
	<path class="st0" d="M56,73.5c20.3,0,36.8-16.4,36.8-36.7S76.4,0,56.1,0S19.3,16.4,19.3,36.7c0,0,0,0.1,0,0.1
		C19.4,57,35.8,73.4,56,73.5"/>
</g>
<path class="st1" d="M58.6,30c-1.1,0.1-2.1,0.3-3.2,0.5c-2.5,0.4-5.1,0.9-7.6,1.3c-1.5,0.3-3,0.6-4.5,0.8c-0.5,0.1-1.1,0.2-1.6,0.3
	c-1.1,0.2-2.2,0.6-3.2,1.2c-5,2.7-9.8,5.8-14.3,9.2c-1.3,1-2.5,2.2-3.8,3.1c-1.2,0.8-2.2,1.8-3.2,2.8c-1,1.1-2,2.2-2.9,3.3
	c-1.1,1.4-2.3,2.6-3.7,3.7c-0.2,0.1-0.5,0.3-0.8,0.3c0.1-0.8,0.4-1.6,0.9-2.3c1.3-2.3,2.8-4.4,4.5-6.4c1.3-1.4,2.7-2.7,4.1-3.9
	c0.8-0.8,1.7-1.5,2.6-2.2c1.9-1.5,3.9-2.9,5.9-4.3c1.2-0.9,2.5-1.7,3.8-2.5c-0.1,0-0.3-0.1-0.4-0.1c-2.4,0.5-4.9,1-7.3,1.4
	c-3.8,0.7-7.6,1.3-11.4,2l-6.1,1.1c-1.6,0.3-3.3,0.6-4.9,0.8c-0.5,0.1-1,0-1.5-0.1c0.6-0.5,1.4-0.7,2.1-0.8
	c3.8-0.8,7.7-1.6,11.5-2.4s7.7-1.7,11.5-2.6s7.9-1.7,11.8-2.6c0.5-0.1,0.9-0.3,1.4-0.5c1.8-0.9,3.5-1.7,5.3-2.6
	c3.9-1.9,7.9-3.6,12-5.1c2.4-0.9,4.9-1.7,7.3-2.6l0.8-0.3c-0.2-0.2-0.6-0.3-0.9-0.2c-3.3,0.5-6.6,1-9.9,1.5
	c-3.8,0.6-7.6,1.2-11.4,1.9c-3,0.5-5.9,0.9-8.9,1.4c-3.2,0.5-6.4,1-9.6,1.5c-2.5,0.4-4.9,0.6-7.4,1c-2.1,0.3-4.2,0.7-6.3,1
	C7.7,29,6,29.3,4.3,29.6c-0.3,0.1-0.7,0-1-0.2c0.2-0.5,0.7-0.6,1.2-0.7c1.2-0.3,2.5-0.5,3.7-0.8c3.7-0.8,7.3-1.5,11-2.3
	c3.9-0.8,7.8-1.4,11.6-2.1c3.2-0.6,6.4-1.2,9.6-1.7s6.2-1,9.3-1.6c2.8-0.5,5.7-0.9,8.5-1.3c2-0.3,4-0.5,6-0.8
	c1.2-0.2,2.4-0.4,3.7-0.5c0.9-0.1,1.9-0.2,2.8-0.2s2.2-0.2,3.2-0.2c0.4,0,0.8,0.1,1.2,0.2c0.3,1.2,0.2,1.6-0.9,2s-1.9,0.6-2.8,0.9
	c-4.9,1.7-9.7,3.4-14.6,5.2c-2.4,0.9-4.7,2-7.1,3c-0.6,0.2-1.2,0.5-1.8,0.9c0.2,0,0.3,0,0.5,0l8.2-1.5c1.9-0.4,3.8-0.7,5.7-1
	c2.1-0.4,4.2-0.7,6.4-1.1l6.4-1c1.7-0.3,3.3-0.5,5-0.9c2.4-0.5,4.7-1,7.1-1.5c2.6-0.5,5.2-0.9,7.8-1.3c1.3-0.2,2.7-0.4,4.1-0.5
	c1.7-0.1,3.4-0.2,5.2-0.2c0.7-0.1,1.3,0.3,1.4,1c0.1,0.5-0.1,1-0.6,1.1c-0.1,0-0.1,0-0.2,0c-1,0.2-2.1,0.4-3.2,0.6
	c-2.7,0.4-5.3,0.9-8,1.3c-1.9,0.3-3.8,0.5-5.7,0.8c-1.4,0.2-2.8,0.5-4.2,0.7c-4.3,0.7-8.6,1.8-12.8,3.1c-3.2,0.9-6.3,1.9-9.4,3
	c-3.7,1.2-7.4,2.4-11.1,3.7c-2,0.7-4,1.5-6,2.3s-4,1.5-6,2.4c-2.5,1.1-4.9,2.3-7.3,3.5c-0.6,0.3-1.2,0.7-1.8,1
	c0.2,0.3,0.6,0.4,1,0.4c1.7,0,3.4,0.1,5.1,0c2-0.1,4.1-0.3,6.1-0.5c1.5-0.1,2.9-0.2,4.4-0.4s2.7-0.4,4.1-0.6s2.6-0.3,3.9-0.4
	s2.3-0.3,3.5-0.5c1.3-0.2,2.7-0.3,4-0.5c1.5-0.2,3-0.5,4.5-0.7l5.1-0.7l3.5-0.5l3.9-0.5l4.2-0.5l3.8-0.4l5.7-0.7l3.8-0.5
	c1.4-0.2,2.9-0.4,4.4-0.5s2.7-0.3,4.1-0.4c1.1-0.1,2.3-0.3,3.4-0.5c0.9-0.1,1.7-0.2,2.6-0.3c0.1,0,0.3,0.1,0.4,0.3
	c-0.9,0.2-1.8,0.5-2.7,0.7c-3.1,0.6-6.1,1.2-9.2,1.8c-3,0.6-6.1,1.1-9.1,1.7c-2.6,0.5-5.2,1-7.9,1.5c-2.8,0.5-5.6,1-8.4,1.4
	c-2.4,0.4-4.8,0.8-7.1,1.1c-1.7,0.2-3.4,0.4-5.1,0.6s-3.6,0.5-5.4,0.7c-1.4,0.2-2.7,0.3-4.1,0.4s-2.9,0.4-4.4,0.5
	c-0.7,0.1-1.3,0.1-2,0.2l-3,0.2l-4,0.3c-0.3,0-0.5,0-0.8,0c-2.2,0-4.3,0.1-6.5,0c-1.2-0.1-2.5-0.3-3.7-0.6c-0.5,0-1-0.3-1.4-0.8
	c-0.5-0.9-0.3-2.1,0.6-2.7c1.6-1.2,3.3-2.3,5.1-3.2c4.9-2.4,9.9-4.6,15-6.4c3.8-1.3,7.6-2.6,11.4-4C58.3,30.2,58.5,30.1,58.6,30
	C58.7,30,58.7,30,58.6,30C58.7,30,58.7,30,58.6,30l0.4,0v-0.1L58.6,30z"/>
</svg>
