<?xml version="1.0" encoding="utf-8"?>
<!-- Generator: Adobe Illustrator 21.0.2, SVG Export Plug-In . SVG Version: 6.00 Build 0)  -->
<svg version="1.1" id="Layer_1" xmlns="http://www.w3.org/2000/svg" xmlns:xlink="http://www.w3.org/1999/xlink" x="0px" y="0px"
	 viewBox="0 0 103.4 66.4" style="enable-background:new 0 0 103.4 66.4;" xml:space="preserve">
<style type="text/css">
	.st0{fill:#262422;}
</style>
<title>logo</title>
<path class="st0" d="M52.2,24.7c-0.9,0.5-1.9,1-2.8,1.5c-2.2,1.3-4.5,2.6-6.7,3.8c-1.3,0.8-2.6,1.6-4,2.3c-0.5,0.3-0.9,0.6-1.4,0.8
	c-1,0.5-1.9,1.3-2.6,2.2c-3.8,4.3-7.2,8.8-10.3,13.6c-0.9,1.4-1.6,2.9-2.5,4.2c-0.8,1.2-1.5,2.4-2.1,3.7c-0.6,1.4-1.1,2.8-1.6,4.1
	c-0.5,1.7-1.3,3.2-2.2,4.7c-0.2,0.2-0.4,0.4-0.6,0.6c-0.2-0.8-0.1-1.7,0.1-2.5c0.4-2.6,1.1-5.1,2-7.5c0.7-1.8,1.7-3.4,2.6-5.1
	c0.5-1,1.1-2,1.7-2.9c1.3-2,2.7-4,4.1-6c0.8-1.2,1.7-2.4,2.7-3.7c-0.1,0-0.3,0-0.4,0.1c-2.1,1.3-4.2,2.6-6.4,3.8
	c-3.3,1.9-6.7,3.8-10,5.8l-5.4,3.1C4.9,52.2,3.5,53,2,53.8c-0.5,0.2-1,0.4-1.5,0.4c0.4-0.6,1-1.2,1.7-1.5c3.3-2.1,6.7-4.1,10-6.2
	c3.3-2.1,6.6-4.3,10-6.4c3.3-2.1,6.8-4.3,10.2-6.5c0.4-0.3,0.8-0.6,1.1-1c1.4-1.4,2.7-2.8,4.1-4.2c3-3.1,6.2-6.1,9.5-8.9
	c1.9-1.7,4-3.3,6-4.9l0.7-0.6c-0.3-0.1-0.6-0.1-0.9,0.1c-2.9,1.6-5.9,3.2-8.8,4.8c-3.4,1.9-6.7,3.8-10,5.6c-2.7,1.5-5.2,2.9-7.9,4.4
	c-2.9,1.6-5.7,3.1-8.6,4.7c-2.2,1.2-4.4,2.3-6.6,3.5c-1.9,1-3.7,2.1-5.5,3.1c-1.5,0.8-3,1.7-4.5,2.6c-0.3,0.2-0.7,0.3-1,0.2
	c0-0.6,0.5-0.8,0.9-1.1c1.1-0.7,2.2-1.3,3.2-2c3.2-2,6.4-4,9.6-5.9c3.4-2,6.8-4,10.2-6c2.8-1.6,5.6-3.3,8.5-4.9
	c2.8-1.6,5.5-3.1,8.2-4.7c2.5-1.4,5-2.8,7.5-4.1c1.8-1,3.6-1.9,5.4-2.8c1.1-0.6,2.2-1.2,3.3-1.8c0.8-0.4,1.7-0.8,2.6-1.2
	s2-0.9,3-1.3c0.4-0.1,0.8-0.2,1.2-0.2c0.7,1.1,0.7,1.5-0.2,2.2c-0.9,0.7-1.6,1.2-2.3,1.8c-4,3.3-8,6.5-11.9,9.8
	c-2,1.7-3.8,3.5-5.6,5.2c-0.5,0.4-0.9,0.9-1.3,1.4c0.2,0,0.3-0.1,0.5-0.2l7.2-4.2c1.7-1,3.3-2,5-2.9c1.9-1.1,3.7-2.1,5.6-3.2
	l5.6-3.1c1.5-0.8,3-1.6,4.4-2.5c2.1-1.2,4.1-2.6,6.2-3.8c2.3-1.3,4.6-2.6,6.9-3.9c1.2-0.7,2.4-1.3,3.6-1.9c1.6-0.7,3.2-1.3,4.8-2
	c0.6-0.3,1.3-0.1,1.6,0.5c0.3,0.4,0.2,1-0.2,1.2c0,0-0.1,0.1-0.1,0.1c-0.9,0.6-1.8,1.1-2.8,1.6c-2.4,1.3-4.7,2.6-7.1,3.9
	c-1.7,0.9-3.4,1.8-5.1,2.7c-1.3,0.7-2.5,1.4-3.8,2.1c-3.8,2.2-7.5,4.6-11,7.3c-2.7,2-5.3,4-7.8,6c-3.1,2.4-6.2,4.8-9.2,7.3
	c-1.6,1.3-3.2,2.8-4.9,4.2s-3.2,2.8-4.8,4.3c-1.9,1.9-3.8,3.9-5.7,5.8c-0.5,0.5-0.9,1-1.4,1.6c0.3,0.2,0.7,0.2,1.1,0
	c1.6-0.6,3.2-1.1,4.8-1.7c1.8-0.8,3.7-1.7,5.6-2.6c1.3-0.6,2.7-1.2,4-1.9c1.3-0.6,2.4-1.3,3.6-1.9c1.2-0.6,2.3-1.1,3.5-1.7
	c1.2-0.6,2.1-1.1,3.1-1.6c1.2-0.6,2.4-1.2,3.6-1.8c1.4-0.7,2.7-1.4,4-2.2l4.6-2.4l3.1-1.6l3.5-1.8l3.7-1.9l3.4-1.7l5.1-2.6l3.4-1.7
	c1.3-0.7,2.6-1.3,3.9-2c1.3-0.7,2.5-1.2,3.7-1.8c1-0.5,2-1.1,3-1.6c0.8-0.4,1.6-0.8,2.4-1.2c0.1,0,0.3,0,0.5,0.1
	c-0.8,0.5-1.5,1.1-2.3,1.5c-2.7,1.6-5.4,3.2-8,4.8c-2.6,1.6-5.3,3.1-8,4.7c-2.3,1.4-4.6,2.7-6.9,4.1c-2.4,1.4-4.9,2.8-7.4,4.2
	c-2.1,1.2-4.2,2.3-6.3,3.5c-1.5,0.8-3.1,1.5-4.6,2.3s-3.2,1.7-4.8,2.5c-1.2,0.6-2.5,1.2-3.7,1.8s-2.6,1.3-3.9,2
	c-0.6,0.3-1.2,0.6-1.8,0.9l-2.7,1.2l-3.6,1.7c-0.2,0.1-0.5,0.2-0.7,0.3c-2,0.7-4,1.5-6.1,2.2c-1.2,0.3-2.4,0.6-3.6,0.7
	c-0.5,0.1-1.1,0-1.5-0.3c-0.8-0.7-1-1.9-0.3-2.8c1.1-1.7,2.3-3.3,3.7-4.7c3.7-4,7.7-7.7,11.9-11.1c3.1-2.5,6.2-5.1,9.3-7.6
	C52,25,52.1,24.9,52.2,24.7C52.2,24.7,52.2,24.7,52.2,24.7C52.2,24.7,52.2,24.7,52.2,24.7l0.4-0.2l0-0.1L52.2,24.7z"/>
</svg>
