<?xml version="1.0" encoding="utf-8"?>
<!-- Generator: Adobe Illustrator 21.0.2, SVG Export Plug-In . SVG Version: 6.00 Build 0)  -->
<svg version="1.1" id="Layer_1" xmlns="http://www.w3.org/2000/svg" xmlns:xlink="http://www.w3.org/1999/xlink" x="0px" y="0px"
	 viewBox="0 0 110.9 39.3" style="enable-background:new 0 0 110.9 39.3;" xml:space="preserve">
<style type="text/css">
	.st0{fill:#FFFFFF;}
</style>
<title>logo</title>
<path class="st0" d="M58.6,12.8c-1.1,0.1-2.1,0.3-3.2,0.5c-2.5,0.4-5.1,0.9-7.6,1.3c-1.5,0.3-3,0.6-4.5,0.8
	c-0.5,0.1-1.1,0.2-1.6,0.3c-1.1,0.2-2.2,0.6-3.2,1.2c-5,2.7-9.8,5.8-14.3,9.2c-1.3,1-2.5,2.2-3.8,3.1C19.2,30,18.2,31,17.2,32
	c-1,1.1-2,2.2-2.9,3.3c-1.1,1.4-2.3,2.6-3.7,3.7c-0.2,0.1-0.5,0.3-0.8,0.3c0.1-0.8,0.4-1.6,0.9-2.3c1.3-2.3,2.8-4.4,4.5-6.4
	c1.3-1.4,2.7-2.7,4.1-3.9c0.8-0.8,1.7-1.5,2.6-2.2c1.9-1.5,3.9-2.9,5.9-4.3c1.2-0.9,2.5-1.7,3.8-2.5c-0.1,0-0.3-0.1-0.4-0.1
	c-2.4,0.5-4.9,1-7.3,1.4c-3.8,0.7-7.6,1.3-11.4,2l-6.1,1.1c-1.6,0.3-3.3,0.6-4.9,0.8c-0.5,0.1-1,0-1.5-0.1c0.6-0.5,1.4-0.7,2.1-0.8
	c3.9-0.7,7.7-1.5,11.5-2.3s7.7-1.7,11.5-2.6s8-1.7,11.9-2.6c0.5-0.1,0.9-0.3,1.4-0.5c1.8-0.9,3.5-1.7,5.3-2.6
	c3.9-1.9,7.9-3.6,12-5.1c2.4-0.9,4.9-1.7,7.3-2.6l0.8-0.3c-0.2-0.2-0.6-0.3-0.9-0.2c-3.3,0.5-6.6,1-9.9,1.5
	c-3.8,0.6-7.6,1.2-11.4,1.9c-3,0.5-5.9,0.9-8.9,1.4c-3.2,0.5-6.4,1-9.6,1.5c-2.5,0.4-4.9,0.6-7.4,1c-2.1,0.3-4.2,0.7-6.3,1
	c-1.7,0.3-3.4,0.6-5.1,0.9c-0.3,0.1-0.7,0-1-0.2c0.2-0.5,0.7-0.6,1.2-0.7C5.7,11.2,7,11,8.2,10.7c3.7-0.8,7.3-1.5,11-2.3
	C23.1,7.6,27,7,30.8,6.3c3.2-0.6,6.4-1.2,9.6-1.7s6.2-1,9.3-1.6c2.8-0.5,5.7-0.9,8.5-1.3c2-0.3,4-0.5,6-0.8c1.2-0.2,2.4-0.4,3.7-0.5
	c0.9-0.1,1.9-0.2,2.8-0.2S72.9,0,73.9,0c0.4,0,0.8,0.1,1.2,0.2c0.3,1.2,0.2,1.6-0.9,2s-1.9,0.6-2.8,0.9c-4.9,1.7-9.7,3.4-14.6,5.2
	c-2.4,0.9-4.7,2-7.1,3c-0.6,0.2-1.2,0.5-1.8,0.9c0.2,0,0.3,0,0.5,0l8.2-1.5c1.9-0.4,3.8-0.7,5.7-1c2.1-0.4,4.2-0.7,6.4-1.1l6.4-1
	c1.7-0.3,3.3-0.5,5-0.9c2.4-0.5,4.7-1,7.1-1.5c2.6-0.5,5.2-0.9,7.8-1.3c1.3-0.2,2.7-0.4,4.1-0.5c1.7-0.1,3.4-0.2,5.2-0.2
	c0.7-0.1,1.3,0.3,1.4,1c0.1,0.5-0.1,1-0.6,1.1c-0.1,0-0.1,0-0.2,0c-1,0.2-2.1,0.4-3.2,0.6c-2.7,0.4-5.3,0.9-8,1.3
	C91.8,7.5,89.9,7.7,88,8c-1.4,0.2-2.8,0.5-4.2,0.7c-4.3,0.7-8.6,1.8-12.8,3.1c-3.2,0.9-6.3,1.9-9.4,3c-3.7,1.2-7.4,2.4-11.1,3.7
	c-2,0.7-4,1.5-6,2.3s-4,1.5-6,2.4c-2.5,1.1-4.9,2.3-7.3,3.5c-0.6,0.3-1.2,0.7-1.8,1c0.2,0.3,0.6,0.4,1,0.4c1.7,0,3.4,0.1,5.1,0
	c2-0.1,4.1-0.3,6.1-0.5c1.5-0.1,2.9-0.2,4.4-0.4s2.7-0.4,4.1-0.6s2.6-0.3,3.9-0.4s2.3-0.3,3.5-0.5c1.3-0.2,2.7-0.3,4-0.5
	c1.5-0.2,3-0.5,4.5-0.7l5.1-0.7l3.5-0.5l3.9-0.5l4.2-0.5l3.8-0.4l5.7-0.7l3.8-0.5c1.4-0.2,2.9-0.4,4.4-0.5s2.7-0.3,4.1-0.4
	c1.1-0.1,2.3-0.3,3.4-0.5c0.9-0.1,1.7-0.2,2.6-0.3c0.1,0,0.3,0.1,0.4,0.3c-0.9,0.2-1.8,0.5-2.7,0.7c-3.1,0.6-6.1,1.2-9.2,1.8
	c-3,0.6-6.1,1.1-9.1,1.7c-2.6,0.5-5.2,1-7.9,1.5c-2.8,0.5-5.6,1-8.4,1.4c-2.4,0.4-4.8,0.8-7.1,1.1c-1.7,0.2-3.4,0.4-5.1,0.6
	s-3.6,0.5-5.4,0.7c-1.4,0.2-2.7,0.3-4.1,0.4s-2.9,0.4-4.4,0.5c-0.7,0.1-1.3,0.1-2,0.2l-3,0.2l-4,0.3c-0.3,0-0.5,0-0.8,0
	c-2.2,0-4.3,0.1-6.5,0c-1.2-0.1-2.5-0.3-3.7-0.6c-0.5,0-1-0.3-1.4-0.8c-0.5-0.9-0.3-2.1,0.6-2.7c1.6-1.2,3.3-2.3,5.1-3.2
	c4.9-2.4,9.9-4.6,15-6.4c3.8-1.3,7.6-2.6,11.4-4C58.3,13,58.5,12.9,58.6,12.8C58.7,12.8,58.7,12.8,58.6,12.8
	C58.7,12.8,58.7,12.8,58.6,12.8H59v-0.1L58.6,12.8z"/>
</svg>
