<?xml version="1.0" encoding="utf-8"?>
<!-- Generator: Adobe Illustrator 21.0.2, SVG Export Plug-In . SVG Version: 6.00 Build 0)  -->
<svg version="1.1" id="Layer_1" xmlns="http://www.w3.org/2000/svg" xmlns:xlink="http://www.w3.org/1999/xlink" x="0px" y="0px"
	 viewBox="0 0 103.7 73.5" style="enable-background:new 0 0 103.7 73.5;" xml:space="preserve">
<style type="text/css">
	.st0{fill:#DC4498;}
	.st1{fill:#262422;}
	.st2{display:none;}
	.st3{display:inline;fill:#0A0401;}
	.st4{display:inline;fill:#0DC9FF;}
</style>
<g>
	<path class="st0" d="M51.8,73.5c20.3,0,36.8-16.5,36.8-36.8S72.1,0,51.8,0S15.1,16.5,15.1,36.8S31.5,73.5,51.8,73.5"/>
	<g>
		<path class="st1" d="M52.1,28.3c-1,0.6-1.9,1-2.8,1.6c-2.2,1.2-4.5,2.6-6.7,3.8c-1.3,0.8-2.6,1.6-4,2.3c-0.4,0.3-1,0.6-1.4,0.8
			c-1.1,0.5-1.9,1.3-2.6,2.1c-3.7,4.3-7.2,8.8-10.3,13.5c-0.9,1.4-1.6,2.9-2.5,4.2c-0.9,1.2-1.5,2.4-2,3.7c-0.6,1.4-1.1,2.8-1.6,4.1
			c-0.6,1.6-1.1,3.3-2.2,4.7c-0.2,0.2-0.3,0.3-0.6,0.6c-0.2-1-0.1-1.7,0.1-2.5c0.4-2.6,1-5.1,2-7.6c0.7-1.8,1.6-3.5,2.6-5.1
			c0.5-1,1.1-2,1.7-3c1.3-2.1,2.7-4.1,4.1-6.1c0.8-1.3,1.8-2.5,2.7-3.7c-0.2,0.1-0.3,0-0.4,0c-2.1,1.3-4.3,2.6-6.4,3.8
			c-3.3,2-6.7,3.8-10,5.8c-1.8,1.1-3.6,2.1-5.4,3.2c-1.4,0.8-2.9,1.7-4.3,2.4c-0.4,0.3-0.9,0.3-1.4,0.4c0.4-0.7,1.1-1.1,1.7-1.5
			c3.3-2.1,6.7-4.1,10-6.2c3.4-2.1,6.7-4.2,9.9-6.4c3.4-2.2,6.8-4.3,10.2-6.5c0.4-0.3,0.7-0.6,1.1-0.9c1.4-1.4,2.7-2.8,4.1-4.3
			c3-3.1,6.2-6.1,9.4-8.9c1.9-1.7,4-3.3,6-4.9c0.2-0.2,0.4-0.4,0.6-0.6c-0.4-0.2-0.6,0-0.9,0.1c-2.9,1.6-5.9,3.2-8.8,4.8
			c-3.4,1.9-6.7,3.8-10.1,5.7c-2.6,1.5-5.2,2.9-7.9,4.4c-2.8,1.6-5.7,3.1-8.5,4.7c-2.1,1.2-4.4,2.2-6.6,3.5c-1.9,1-3.7,2.1-5.6,3.1
			c-1.2,1.2-2.7,2-4.2,2.9c-0.2,0.2-0.6,0.3-1,0.2c0-0.5,0.5-0.8,0.9-1.1c1-0.7,2.2-1.3,3.2-2c3.2-2,6.3-3.9,9.5-5.9
			c3.4-2,6.9-4,10.2-5.9c2.8-1.7,5.6-3.3,8.4-4.9c2.7-1.5,5.4-3.2,8.2-4.7c2.5-1.4,5-2.8,7.5-4.1c1.8-1,3.6-1.8,5.4-2.8
			c1.1-0.6,2.1-1.2,3.3-1.7c0.8-0.4,1.7-0.8,2.6-1.1c1-0.5,1.9-0.9,2.9-1.3c0.4-0.1,0.9-0.1,1.2-0.2c0.7,1,0.6,1.5-0.2,2.2
			c-0.7,0.6-1.6,1.2-2.3,1.8c-4,3.3-8,6.5-11.9,9.9c-1.9,1.7-3.7,3.5-5.6,5.2c-0.5,0.5-1,0.9-1.4,1.5c0.2-0.1,0.3-0.1,0.5-0.2
			c2.4-1.4,4.7-2.8,7.2-4.2c1.7-0.9,3.3-2,5-2.9c1.8-1.1,3.7-2.1,5.6-3.2c1.9-1,3.7-2.1,5.7-3.1c1.5-0.9,2.9-1.6,4.4-2.6
			c2.1-1.3,4.1-2.5,6.2-3.8c2.3-1.4,4.6-2.6,6.9-3.9C84.5,7,85.7,6.3,87,5.7c1.6-0.7,3.2-1.4,4.8-2c0.8-0.3,1.4-0.1,1.7,0.5
			c0.3,0.5,0.2,1-0.4,1.3c-0.9,0.5-1.8,1.1-2.8,1.7c-2.4,1.3-4.7,2.7-7.1,4c-1.7,0.9-3.4,1.8-5.1,2.7c-1.2,0.7-2.5,1.4-3.7,2.1
			c-3.9,2.1-7.4,4.8-10.9,7.4c-2.7,1.9-5.3,3.9-7.8,6c-3.1,2.4-6.1,4.8-9.2,7.3c-1.6,1.3-3.2,2.8-4.9,4.2c-1.6,1.4-3.2,2.8-4.8,4.3
			c-2,1.9-3.8,3.8-5.7,5.8c-0.5,0.5-0.9,1.1-1.3,1.6c0.4,0.3,0.8,0.1,1.1,0c1.6-0.6,3.2-1.1,4.8-1.7c1.8-0.8,3.7-1.8,5.6-2.6
			c1.4-0.6,2.7-1.2,4-1.9c1.2-0.7,2.5-1.3,3.8-1.9c1.2-0.6,2.3-1.2,3.5-1.7c1.1-0.5,2.1-1.1,3.1-1.7c1.2-0.6,2.3-1.2,3.6-1.8
			c1.3-0.7,2.6-1.5,4-2.2c1.5-0.8,3-1.6,4.6-2.4c1.1-0.6,2.1-1.1,3.1-1.7c1.2-0.6,2.3-1.2,3.5-1.8c1.2-0.7,2.5-1.3,3.8-1.9
			c1.2-0.6,2.2-1.1,3.4-1.7c1.7-0.8,3.3-1.7,5-2.6c1.2-0.6,2.2-1.1,3.4-1.8c1.3-0.7,2.6-1.4,4-2c1.2-0.7,2.4-1.2,3.7-1.8
			c1-0.5,2.1-1.1,3-1.6c0.8-0.4,1.5-0.8,2.3-1.2c0.1,0,0.3,0,0.6,0.1c-0.8,0.5-1.5,1.1-2.3,1.5c-2.7,1.6-5.3,3.2-8,4.8
			c-2.6,1.6-5.4,3.1-8,4.7c-2.3,1.4-4.5,2.7-6.9,4.1c-2.5,1.4-4.9,2.9-7.4,4.2c-2.1,1.2-4.2,2.4-6.3,3.5c-1.5,0.8-3.1,1.5-4.6,2.3
			c-1.6,0.8-3.2,1.7-4.8,2.5c-1.2,0.7-2.4,1.2-3.7,1.8c-1.3,0.7-2.6,1.4-4,2c-0.6,0.3-1.3,0.6-1.8,0.9c-0.9,0.4-1.8,0.8-2.8,1.2
			c-1.2,0.5-2.5,1.1-3.7,1.6c-0.3,0.1-0.5,0.2-0.8,0.3c-2.1,0.8-4,1.6-6.1,2.2c-1.2,0.3-2.4,0.5-3.7,0.7c-0.5,0.1-1,0.1-1.5-0.3
			c-0.9-0.6-0.9-1.7-0.4-2.7c1.1-1.8,2.3-3.3,3.7-4.8c3.8-3.9,7.7-7.7,11.9-11.1c3.1-2.5,6.3-5,9.3-7.7C52,28.7,52.1,28.6,52.1,28.3
			C52.3,28.4,52.1,28.3,52.1,28.3C52.2,28.4,52.2,28.4,52.1,28.3c0.1,0,0.3-0.1,0.4-0.1l0-0.1C52.4,28.1,52.3,28.3,52.1,28.3z"/>
	</g>
</g>
<g>
	<g>
		<defs>
			<rect id="SVGID_1_" x="4.9" y="-17.9" width="113" height="81.5"/>
		</defs>
		<clipPath id="SVGID_2_">
			<use xlink:href="#SVGID_1_"  style="overflow:visible;"/>
		</clipPath>
	</g>
</g>
<g class="st2">
	<path class="st3" d="M59.6,29.9c-1.1,0.2-2.1,0.3-3.2,0.5c-2.5,0.4-5.1,0.9-7.6,1.3c-1.5,0.3-3,0.6-4.5,0.8
		c-0.5,0.1-1.1,0.2-1.6,0.3c-1.2,0.1-2.2,0.6-3.2,1.1c-5,2.8-9.8,5.8-14.3,9.2c-1.3,1-2.5,2.2-3.8,3.1C20.2,47,19.2,48,18.2,49
		c-1,1.1-2,2.2-2.9,3.3c-1.1,1.3-2.2,2.7-3.7,3.7c-0.2,0.1-0.4,0.2-0.8,0.3c0.1-1,0.5-1.6,0.9-2.3c1.3-2.3,2.7-4.4,4.5-6.4
		c1.3-1.4,2.7-2.7,4.2-3.9c0.8-0.8,1.7-1.5,2.6-2.2c1.9-1.5,3.9-2.9,5.9-4.3c1.2-0.9,2.5-1.7,3.8-2.6c-0.2,0-0.3-0.1-0.4-0.1
		c-2.4,0.5-4.9,1-7.3,1.4c-3.8,0.7-7.6,1.3-11.4,2c-2.1,0.4-4.1,0.7-6.2,1.1c-1.6,0.3-3.3,0.6-4.9,0.8c-0.5,0.1-1,0-1.5-0.1
		c0.6-0.5,1.4-0.7,2.1-0.8c3.8-0.8,7.7-1.6,11.5-2.4c3.9-0.8,7.7-1.7,11.5-2.6C30,33,34,32.2,37.9,31.3c0.5-0.1,0.9-0.3,1.4-0.5
		c1.8-0.8,3.5-1.7,5.3-2.6c3.9-1.9,7.9-3.6,11.9-5.1c2.4-0.9,4.9-1.7,7.3-2.6c0.2-0.1,0.5-0.2,0.8-0.3C64.3,19.9,64,20,63.7,20
		c-3.3,0.5-6.6,1-9.9,1.5c-3.8,0.6-7.6,1.3-11.4,1.9c-3,0.5-5.9,0.9-8.9,1.4c-3.2,0.5-6.4,1-9.6,1.5c-2.4,0.4-4.9,0.6-7.4,1
		c-2.1,0.3-4.2,0.7-6.3,1c-1.5,0.7-3.2,1-4.9,1.3c-0.3,0.1-0.7,0.1-1-0.2c0.2-0.5,0.7-0.6,1.2-0.7c1.2-0.3,2.5-0.5,3.7-0.8
		c3.7-0.8,7.3-1.5,11-2.3c3.9-0.7,7.8-1.4,11.6-2.1c3.2-0.6,6.4-1.2,9.6-1.7c3.1-0.5,6.2-1.1,9.3-1.6c2.8-0.5,5.7-0.9,8.5-1.3
		c2-0.3,4-0.5,6-0.8c1.2-0.2,2.4-0.4,3.7-0.5c0.9-0.1,1.9-0.2,2.8-0.2c1.1-0.1,2.1-0.2,3.2-0.2c0.4,0,0.9,0.2,1.2,0.2
		c0.3,1.2,0.1,1.6-0.9,2c-0.9,0.3-1.9,0.6-2.8,0.9c-4.9,1.7-9.7,3.4-14.6,5.2c-2.4,0.9-4.7,2-7.1,3c-0.6,0.3-1.2,0.5-1.8,0.9
		c0.2,0,0.3,0,0.5,0c2.7-0.5,5.4-1,8.2-1.5c1.9-0.3,3.8-0.7,5.7-1c2.1-0.4,4.2-0.7,6.4-1.1c2.1-0.3,4.2-0.7,6.4-1
		c1.7-0.3,3.3-0.5,5-0.9c2.4-0.5,4.7-1,7.1-1.5c2.6-0.5,5.2-0.9,7.8-1.3c1.3-0.2,2.7-0.4,4.1-0.5c1.7-0.1,3.5-0.2,5.2-0.2
		c0.8,0,1.3,0.4,1.4,1s-0.1,1-0.8,1.1c-1,0.2-2.1,0.4-3.2,0.6c-2.7,0.4-5.3,0.9-8,1.3c-1.9,0.3-3.8,0.5-5.7,0.8
		c-1.4,0.2-2.8,0.5-4.2,0.7c-4.4,0.6-8.6,2-12.8,3.2c-3.2,0.9-6.3,1.9-9.4,3c-3.7,1.2-7.4,2.4-11.1,3.7c-2,0.7-4,1.5-6,2.3
		s-4,1.5-6,2.4c-2.5,1.1-4.9,2.3-7.3,3.5c-0.6,0.3-1.2,0.7-1.8,1c0.3,0.4,0.7,0.4,1,0.4c1.7,0,3.4,0.1,5.1,0c2-0.1,4.1-0.4,6.1-0.5
		c1.5-0.1,2.9-0.2,4.4-0.4c1.4-0.2,2.8-0.4,4.2-0.5c1.3-0.2,2.6-0.3,3.9-0.4c1.2-0.1,2.3-0.3,3.5-0.5c1.3-0.2,2.6-0.3,4-0.5
		c1.5-0.2,3-0.5,4.5-0.7c1.7-0.2,3.4-0.5,5.1-0.7c1.2-0.2,2.3-0.3,3.5-0.5c1.3-0.2,2.6-0.3,3.9-0.5c1.4-0.2,2.8-0.4,4.2-0.5
		c1.3-0.2,2.5-0.3,3.8-0.4c1.9-0.2,3.7-0.5,5.6-0.7c1.3-0.2,2.5-0.3,3.8-0.5c1.5-0.2,2.9-0.4,4.4-0.5c1.4-0.2,2.7-0.3,4.1-0.4
		c1.1-0.1,2.3-0.3,3.4-0.5c0.9-0.1,1.7-0.2,2.6-0.3c0.1,0,0.3,0.1,0.5,0.3c-0.9,0.2-1.8,0.5-2.7,0.6c-3.1,0.6-6.1,1.2-9.2,1.8
		c-3,0.6-6.1,1.1-9.1,1.7c-2.6,0.5-5.2,1-7.9,1.5c-2.8,0.5-5.6,1-8.4,1.4c-2.4,0.4-4.8,0.8-7.1,1.1c-1.7,0.2-3.4,0.4-5.1,0.6
		c-1.8,0.2-3.6,0.5-5.4,0.7c-1.4,0.2-2.7,0.3-4.1,0.4c-1.5,0.2-2.9,0.4-4.4,0.5c-0.7,0.1-1.4,0.1-2,0.2c-1,0.1-2,0.1-3,0.2
		c-1.3,0.1-2.7,0.2-4,0.3c-0.3,0-0.5,0-0.8,0c-2.2,0-4.3,0.1-6.5,0c-1.2-0.1-2.4-0.3-3.7-0.6c-0.5-0.1-1-0.3-1.3-0.8
		c-0.6-0.9-0.3-1.9,0.6-2.7c1.6-1.3,3.3-2.3,5.1-3.2c4.9-2.4,9.9-4.6,15-6.4c3.8-1.3,7.6-2.6,11.4-4C59.3,30.2,59.5,30.1,59.6,29.9
		C59.7,30,59.6,29.9,59.6,29.9C59.6,30,59.6,30,59.6,29.9c0.1,0,0.3,0,0.4,0v-0.1C59.9,29.8,59.8,29.9,59.6,29.9z"/>
</g>
<g class="st2">
	<path class="st4" d="M58.6,28.9c-1.1,0.2-2.1,0.3-3.2,0.5c-2.5,0.4-5.1,0.9-7.6,1.3c-1.5,0.3-3,0.6-4.5,0.8
		c-0.5,0.1-1.1,0.2-1.6,0.3c-1.2,0.1-2.2,0.6-3.2,1.1c-5,2.8-9.8,5.8-14.3,9.2c-1.3,1-2.5,2.2-3.8,3.1C19.2,46,18.2,47,17.2,48
		c-1,1.1-2,2.2-2.9,3.3c-1.1,1.3-2.2,2.7-3.7,3.7c-0.2,0.1-0.4,0.2-0.8,0.3c0.1-1,0.5-1.6,0.9-2.3c1.3-2.3,2.7-4.4,4.5-6.4
		c1.3-1.4,2.7-2.7,4.2-3.9c0.8-0.8,1.7-1.5,2.6-2.2c1.9-1.5,3.9-2.9,5.9-4.3c1.2-0.9,2.5-1.7,3.8-2.6c-0.2,0-0.3-0.1-0.4-0.1
		c-2.4,0.5-4.9,1-7.3,1.4c-3.8,0.7-7.6,1.3-11.4,2c-2.1,0.4-4.1,0.7-6.2,1.1c-1.6,0.3-3.3,0.6-4.9,0.8c-0.5,0.1-1,0-1.5-0.1
		c0.6-0.5,1.4-0.7,2.1-0.8c3.8-0.8,7.7-1.6,11.5-2.4c3.9-0.8,7.7-1.7,11.5-2.6C29,32,33,31.2,36.9,30.3c0.5-0.1,0.9-0.3,1.4-0.5
		c1.8-0.8,3.5-1.7,5.3-2.6c3.9-1.9,7.9-3.6,11.9-5.1c2.4-0.9,4.9-1.7,7.3-2.6c0.2-0.1,0.5-0.2,0.8-0.3C63.3,18.9,63,19,62.7,19
		c-3.3,0.5-6.6,1-9.9,1.5c-3.8,0.6-7.6,1.3-11.4,1.9c-3,0.5-5.9,0.9-8.9,1.4c-3.2,0.5-6.4,1-9.6,1.5c-2.4,0.4-4.9,0.6-7.4,1
		c-2.1,0.3-4.2,0.7-6.3,1c-1.5,0.7-3.2,1-4.9,1.3c-0.3,0.1-0.7,0.1-1-0.2c0.2-0.5,0.7-0.6,1.2-0.7c1.2-0.3,2.5-0.5,3.7-0.8
		c3.7-0.8,7.3-1.5,11-2.3c3.9-0.7,7.8-1.4,11.6-2.1c3.2-0.6,6.4-1.2,9.6-1.7c3.1-0.5,6.2-1.1,9.3-1.6c2.8-0.5,5.7-0.9,8.5-1.3
		c2-0.3,4-0.5,6-0.8c1.2-0.2,2.4-0.4,3.7-0.5c0.9-0.1,1.9-0.2,2.8-0.2c1.1-0.1,2.1-0.2,3.2-0.2c0.4,0,0.9,0.2,1.2,0.2
		c0.3,1.2,0.1,1.6-0.9,2c-0.9,0.3-1.9,0.6-2.8,0.9c-4.9,1.7-9.7,3.4-14.6,5.2c-2.4,0.9-4.7,2-7.1,3c-0.6,0.3-1.2,0.5-1.8,0.9
		c0.2,0,0.3,0,0.5,0c2.7-0.5,5.4-1,8.2-1.5c1.9-0.3,3.8-0.7,5.7-1c2.1-0.4,4.2-0.7,6.4-1.1c2.1-0.3,4.2-0.7,6.4-1
		c1.7-0.3,3.3-0.5,5-0.9c2.4-0.5,4.7-1,7.1-1.5c2.6-0.5,5.2-0.9,7.8-1.3c1.3-0.2,2.7-0.4,4.1-0.5c1.7-0.1,3.5-0.2,5.2-0.2
		c0.8,0,1.3,0.4,1.4,1s-0.1,1-0.8,1.1c-1,0.2-2.1,0.4-3.2,0.6c-2.7,0.4-5.3,0.9-8,1.3c-1.9,0.3-3.8,0.5-5.7,0.8
		c-1.4,0.2-2.8,0.5-4.2,0.7c-4.4,0.6-8.6,2-12.8,3.2c-3.2,0.9-6.3,1.9-9.4,3c-3.7,1.2-7.4,2.4-11.1,3.7c-2,0.7-4,1.5-6,2.3
		s-4,1.5-6,2.4c-2.5,1.1-4.9,2.3-7.3,3.5c-0.6,0.3-1.2,0.7-1.8,1c0.3,0.4,0.7,0.4,1,0.4c1.7,0,3.4,0.1,5.1,0c2-0.1,4.1-0.4,6.1-0.5
		c1.5-0.1,2.9-0.2,4.4-0.4c1.4-0.2,2.8-0.4,4.2-0.5c1.3-0.2,2.6-0.3,3.9-0.4c1.2-0.1,2.3-0.3,3.5-0.5c1.3-0.2,2.6-0.3,4-0.5
		c1.5-0.2,3-0.5,4.5-0.7c1.7-0.2,3.4-0.5,5.1-0.7c1.2-0.2,2.3-0.3,3.5-0.5c1.3-0.2,2.6-0.3,3.9-0.5c1.4-0.2,2.8-0.4,4.2-0.5
		c1.3-0.2,2.5-0.3,3.8-0.4c1.9-0.2,3.7-0.5,5.6-0.7c1.3-0.2,2.5-0.3,3.8-0.5c1.5-0.2,2.9-0.4,4.4-0.5c1.4-0.2,2.7-0.3,4.1-0.4
		c1.1-0.1,2.3-0.3,3.4-0.5c0.9-0.1,1.7-0.2,2.6-0.3c0.1,0,0.3,0.1,0.5,0.3c-0.9,0.2-1.8,0.5-2.7,0.6c-3.1,0.6-6.1,1.2-9.2,1.8
		c-3,0.6-6.1,1.1-9.1,1.7c-2.6,0.5-5.2,1-7.9,1.5c-2.8,0.5-5.6,1-8.4,1.4c-2.4,0.4-4.8,0.8-7.1,1.1c-1.7,0.2-3.4,0.4-5.1,0.6
		c-1.8,0.2-3.6,0.5-5.4,0.7c-1.4,0.2-2.7,0.3-4.1,0.4c-1.5,0.2-2.9,0.4-4.4,0.5c-0.7,0.1-1.4,0.1-2,0.2c-1,0.1-2,0.1-3,0.2
		c-1.3,0.1-2.7,0.2-4,0.3c-0.3,0-0.5,0-0.8,0c-2.2,0-4.3,0.1-6.5,0c-1.2-0.1-2.4-0.3-3.7-0.6c-0.5-0.1-1-0.3-1.3-0.8
		c-0.6-0.9-0.3-1.9,0.6-2.7c1.6-1.3,3.3-2.3,5.1-3.2c4.9-2.4,9.9-4.6,15-6.4c3.8-1.3,7.6-2.6,11.4-4C58.3,29.2,58.5,29.1,58.6,28.9
		C58.7,29,58.6,28.9,58.6,28.9C58.6,29,58.6,29,58.6,28.9c0.1,0,0.3,0,0.4,0v-0.1C58.9,28.8,58.8,28.9,58.6,28.9z"/>
</g>
</svg>
