<svg id="Layer_1" data-name="Layer 1" xmlns="http://www.w3.org/2000/svg" viewBox="0 0 30 17"><defs><style>.cls-1{fill:#ffc515;}</style></defs><title>menu-hamburger-closed</title><path class="cls-1" d="M29,3H1A1,1,0,0,1,0,2V1A1,1,0,0,1,1,0H29a1,1,0,0,1,1,1V2A1,1,0,0,1,29,3Z"/><path class="cls-1" d="M29,3H1A1,1,0,0,1,0,2V1A1,1,0,0,1,1,0H29a1,1,0,0,1,1,1V2A1,1,0,0,1,29,3Z"/><path class="cls-1" d="M29,10H1A1,1,0,0,1,0,9V8A1,1,0,0,1,1,7H29a1,1,0,0,1,1,1V9A1,1,0,0,1,29,10Z"/><path class="cls-1" d="M29,17H1a1,1,0,0,1-1-1V15a1,1,0,0,1,1-1H29a1,1,0,0,1,1,1v1A1,1,0,0,1,29,17Z"/></svg>