<svg id="open" xmlns="http://www.w3.org/2000/svg" viewBox="0 0 29.99 20.98"><defs><style>.cls-1{fill:#ffc515;}</style></defs><title>menu-hamburger-open</title><path class="cls-1" d="M29.21,3a1.18,1.18,0,0,0,.73-1.42L29.6.66A1.08,1.08,0,0,0,28.18.11L15,4,1.82.11A1.08,1.08,0,0,0,.4.66L.06,1.6A1.18,1.18,0,0,0,.79,3L15,7Z" transform="translate(-0.01 -0.03)"/><path class="cls-1" d="M29.21,10a1.18,1.18,0,0,0,.73-1.42l-.34-.94a1.08,1.08,0,0,0-1.41-.55L15,11,1.82,7.11A1.08,1.08,0,0,0,.4,7.66L.06,8.6A1.18,1.18,0,0,0,.79,10L15,14Z" transform="translate(-0.01 -0.03)"/><path class="cls-1" d="M29.21,17a1.18,1.18,0,0,0,.73-1.42l-.34-.94a1.08,1.08,0,0,0-1.41-.55L15,18,1.82,14.11a1.08,1.08,0,0,0-1.42.55l-.34.94A1.18,1.18,0,0,0,.79,17L15,21Z" transform="translate(-0.01 -0.03)"/></svg>