<?xml version="1.0" encoding="utf-8"?>
<!-- Generator: Adobe Illustrator 21.0.2, SVG Export Plug-In . SVG Version: 6.00 Build 0)  -->
<svg version="1.1" id="Layer_1" xmlns="http://www.w3.org/2000/svg" xmlns:xlink="http://www.w3.org/1999/xlink" x="0px" y="0px"
	 viewBox="0 0 743.5 367.3" style="enable-background:new 0 0 743.5 367.3;" xml:space="preserve">
<style type="text/css">
	.st0{enable-background:new    ;}
	.st1{fill:#333333;}
</style>
<title>projects-title</title>
<g class="st0">
	<path class="st1" d="M146.7,155.2c8.1,1.3,15.5,4.4,22.1,9.2c6.6,4.9,11.4,11.3,14.3,19.3c2.9,8,1.2,19-5,33
		c-6.3,14-15.2,27.2-26.9,39.7c-11.7,12.5-22.8,20.7-33.4,24.5c-10.6,3.8-19.8,2.2-27.7-4.8c-13.8,46-21,73.4-21.6,82.4
		c0.4,0.7,0.9,1.8,1.5,3.3c0.5,1.5-0.1,2.5-1.8,3.2c-1.7,0.6-4.5,0-8.3-1.9c-3.8-1.9-6.7-5.5-8.6-10.8c-0.6-1.6-0.9-2.8-1.1-3.8
		c-2.4-10.8,4.6-36.4,20.9-76.8c16.3-40.3,29.2-66,38.9-76.9c2-2.2,3.7-3.5,5-3.9c1.3-0.5,2.7-0.5,4.3-0.2c1.6,0.3,2.6,1,3,2.1
		c0.4,1.1,0.4,2.1,0,2.9c-7.3,16.5-11.6,26.5-13,30l-16.2,42.6c-0.1,0.6-0.1,1.1,0,1.6c0.4,1.1,1.3,1.4,2.7,0.9
		c6.3-2.3,14.1-7.2,23.5-14.7c9.4-7.5,18.4-15.9,26.9-25.1c8.5-9.2,15.3-18.9,20.3-28.9c5-10.1,6.4-18.2,4.1-24.5
		c-1.9-5.2-8.2-7.2-19-6.1c-10.8,1.1-21.8,3.7-33.2,7.8c-11.4,4.1-23,10.2-35,18.2c-12,8-22,16.1-30.1,24.4
		c-8.1,8.3-15.1,16.4-21.1,24.3c-6,7.9-10.3,14.6-12.9,19.8c-2.6,5.3-3.7,8.5-3.3,9.7c0.4,1.2,1.2,1.6,2.3,1.2
		c1.1-0.4,3.8-2.3,8.1-5.6c13.8-10.9,26.6-23.4,38.4-37.7c0.9-1,1.5-1.6,1.9-1.8c0.4-0.1,0.7,0,0.8,0.4c0.1,0.4-0.3,2.2-1.3,5.5
		c-1,3.3-2.6,7.4-4.7,12.3c-2.1,4.9-4.6,9.9-7.4,14.8c-2.8,4.9-6.3,9.5-10.5,13.8c-4.2,4.3-8.7,7.3-13.5,9
		c-4.8,1.7-10.2,1.5-16.2-0.6c-6-2.2-10.2-6.6-12.7-13.2c-2.4-6.7-1.8-15.1,2-25.3c3.7-10.2,9.7-20.8,17.8-31.8
		c8.2-11,19.3-21.8,33.6-32.4c14.2-10.7,28.9-18.8,44.1-24.3C114.1,154.3,130,152.8,146.7,155.2z"/>
</g>
<g class="st0">
	<path class="st1" d="M175.3,265.3c6.4-9.1,13.1-18.8,20-29.1c-6.3-1.6-10.7-3.8-13.3-6.6c-0.9-0.9-1.4-1.6-1.6-2.1
		c-1.1-3.1-0.9-5.6,0.8-7.3c1.7-1.8,4.8-3.5,9.3-5.1c1.7-0.6,7.6-0.4,17.6,0.8c10,1.1,16.1,1.3,18.4,0.5c2.3-0.8,5.2-2.6,8.8-5.5
		c3.6-2.8,6.6-4.7,9-5.5c2.4-0.9,4.4-1,5.9-0.3c5.8,3.7,8.9,6.2,9.3,7.3c0.4,1.1,0.2,2.2-0.5,3.3c-0.8,1.1-3.2,4.5-7.2,10.2
		c-4,5.7-7.9,11.5-11.7,17.3c-3.7,5.8-7,12-9.8,18.5c-2.8,6.5-3.6,11.3-2.5,14.2c0.2,0.5,0.6,0.6,1.4,0.3
		c8.5-3.1,30.7-30.6,66.8-82.6c1.1-0.4,2,0.4,2.7,2.3c0.7,2-3,10.9-11.2,27c-8.2,16-18.1,32.4-29.6,49.1
		c-11.6,16.7-20.9,26.4-27.9,28.9c-11,4-18.4,0.5-22.4-10.5c-2.2-6-2.3-12.4-0.3-19.4c2-7,7.7-17.6,17.1-31.6
		c-2.7,1-6.5,1.6-11.5,1.9c-5,0.3-8.5-0.2-10.4-1.7c-2.8,5.1-7.6,13.7-14.6,25.8c-1.7,2.6-4.5,4.6-8.2,5.9s-5.9,1.5-6.3,0.3
		C172.9,270.4,173.5,268.3,175.3,265.3z"/>
	<path class="st1" d="M331,215.9c4.4-1.6,10.3-6.8,17.6-15.5c7.4-8.7,13.6-17,18.7-24.9l7.6-12.1c1.8,0.6,3,1.7,3.6,3.2
		c0.6,1.6,0.4,3.2-0.6,5c-17.1,33.4-32.3,52.5-45.6,57.3c-0.9,0.3-2.4,0.7-4.4,1.1c-10.2,27-21.7,42.7-34.4,47.4
		c-8.9,1.8-15.3,0.8-19.2-3.1c-2.1-1.9-3.8-4.6-5.1-8.2c-3.8-10.3-2.3-24.8,4.4-43.5c6.7-18.7,17.8-34.6,33.4-47.9
		c1.6-0.6,2.9-0.6,3.9-0.2c1,0.4,1.9,0.6,2.5,0.4c0.7-0.1,1.4-0.8,2.1-1.8c0.8-1.1,2-2,3.7-2.7c1.7-0.7,3.9-0.4,6.5,1
		c3.2,1.1,5.4,3.2,6.5,6.1C335.4,186.2,335,199,331,215.9z M289.7,261.7c5-1.8,10-7.4,15-16.6c5-9.3,7.1-15.2,6.6-17.8
		c-2.4-0.9-5.5-3-9.1-6.4c-3.6-3.4-5.5-5-5.7-5c-3.2,6.3-5.6,13.1-7.2,20.4c-2.3,12.2-2.8,20.2-1.4,23.9
		C288.3,261.6,288.9,262,289.7,261.7z M319.5,185.7c-1.6,0.6-3.9,4.2-7.1,10.8c-3.2,6.7-4.4,10.9-3.7,12.8c0.2,0.5,1,1.2,2.4,2.3
		c1.5,1.1,2.4,1.5,2.9,1.3c2.7-1,4.5-5.3,5.5-12.9c1-7.6,1.4-12,1-13C320.2,186.1,319.8,185.6,319.5,185.7z"/>
	<path class="st1" d="M374.7,151.8l10.3-3.2c2.1-0.6,3.4-0.2,3.8,1c0.2,0.6-0.9,5.2-3.4,13.6c-2.5,8.5-6.3,21.8-11.3,39.9
		c-5,18.1-9.1,33.1-12.3,44.8c-3.2,11.7-6.6,24-10.4,36.9c-3.7,12.9-7.2,23.4-10.3,31.6c-3.2,8.2-6.6,16-10.4,23.6
		c-7.2,14-16.2,22.9-27.2,26.9c-2,0.7-5.2,0.6-9.6-0.5c-4.4-1.1-7.4-3.8-9-8.3c-1.6-4.5-0.2-13.3,4.4-26.6
		c4.6-13.3,11-26.3,19.4-39.1c8.4-12.8,16.3-20.6,23.8-23.3c0.6-0.2,1-0.2,1.1,0.1c0.3,0.3,0.5,0.3,0.8,0.3c0.2-0.1,0.5-0.4,0.8-1.1
		l34.2-110.6C369.7,155,371.4,153,374.7,151.8z M300.5,352c4.1-1.5,10.7-14.6,19.8-39.3c9.1-24.7,13.4-37.8,12.8-39.4
		c-0.1-0.3-0.3-0.4-0.6-0.3c-3.4,1.3-10.2,13.4-20.4,36.5c-10.1,23.1-14.3,37.1-12.5,41.9C299.7,352,300,352.2,300.5,352z M391.2,99
		c1.6-0.6,2.7-0.6,3.4-0.2c3.2,1.9,5,3.6,5.6,5.3c0.6,1.6,0.6,3.2,0.1,4.7c-0.5,1.5-1.2,3.3-2,5.2c-0.8,2-2.7,5-5.8,9
		c-3.1,4-6.5,6.7-10.2,8.1c-3,0.6-5-0.7-6.1-3.6c-1.7-4.7-0.6-10.3,3.5-16.8C383.8,104.2,387.6,100.3,391.2,99z"/>
	<path class="st1" d="M419.1,231.2c-12.1,4.4-20.8-0.8-26.1-15.5c-3.4-9.2-2.9-20.5,1.4-33.9c4.3-13.3,10.7-25.3,19.2-36
		c8.5-10.6,17-17.5,25.5-20.6c3.8-1.4,7.8-1.1,12.1,0.7c4.3,1.8,7,4.1,8,6.9c1.9,5.2,0.3,12.3-4.7,21.5c-5,9.2-10.8,17.2-17.4,24.2
		c-6.6,6.9-11.2,10.9-13.8,11.8c-2.6,0.9-4.9,0.5-7-1.4c-0.8-0.2-1.7-0.2-2.8,0.2c-1.1,0.4-2.1,3.1-3.1,8.2c-1,5.1-1,8.9-0.1,11.5
		c0.9,2.6,2.5,3.8,4.6,3.8c11.9-4.3,23.6-12.5,35-24.6c11.4-12,26.2-31.3,44.4-57.8c1.3-1.9,3.2-4.7,5.8-8.5c2.6-3.8,4.1-6,4.6-6.7
		c1.8,0.6,3,1.7,3.6,3.2c0.6,1.6,0.4,3.2-0.6,5c-5,10.7-11.9,23.1-20.8,37.4c-8.9,14.2-19.9,28.6-32.8,43.2
		C440.8,218.3,429.2,227.5,419.1,231.2z M441.7,137.8c-4.1,1.5-9.4,8.2-16.1,20.1c-6.7,11.9-9.7,18.8-9,20.7
		c0.1,0.3,0.4,0.4,0.9,0.2c3.4-1.3,8.9-7.6,16.4-19c7.5-11.4,10.7-18.5,9.7-21.3C443.3,137.7,442.7,137.4,441.7,137.8z"/>
	<path class="st1" d="M552.5,95.6c1.9,5.7,0.4,12.5-4.4,20.5c-4.8,8-12.1,13.7-21.8,17.2c-4.1,1.5-6.5,1-7.4-1.3
		c-0.3-0.9,0.1-1.9,1.3-2.9c7.4-8.9,11.7-15.5,13-19.9c0.1-0.7,0-1.5-0.3-2.3c-0.3-0.8-0.8-1-1.6-0.7c-12.6,6.7-22.7,18.6-30.1,35.7
		c-7.4,17.1-9.9,29.1-7.3,36.2c1.2,3.3,3,4.5,5.6,3.6c11.6-4.2,22.6-12,33-23.4c10.4-11.4,25-30.7,43.8-58c1.3-1.9,3.2-4.7,5.8-8.5
		c2.6-3.8,4.1-6,4.6-6.7c1.8,0.6,3,1.7,3.6,3.2c0.6,1.6,0.4,3.2-0.6,5c-5,10.7-11.9,23.1-20.8,37.4c-8.9,14.2-19.9,28.6-32.8,43.2
		c-13,14.6-24.5,23.7-34.7,27.4c-12.1,4.4-20.4,0.2-25.1-12.7c-3.2-8.9-3.5-18.7-0.6-29.4c2.8-10.7,7.5-20.5,14-29.4
		c6.5-8.9,13.8-16.9,21.9-23.8c8.1-6.9,15-11.5,20.7-13.5c5.7-2.1,10.1-2.8,13.2-2.1c3.1,0.7,5,1.7,5.7,3.2L552.5,95.6z"/>
	<path class="st1" d="M638.1,23.8l11.9-4.6c15.5-5.6,27.6-7.6,36.2-5.7c3.8-0.2,6.1,0.6,6.7,2.3c0.5,1.3-0.8,2.7-3.6,4.3
		c-2.9,1.6-13,6.6-30.4,15.2c-17.4,8.5-29.4,14.2-36,17c-2.9,1.2-7.9,8.9-14.9,23c-7,14.1-13.2,29-18.4,44.8
		c-5.3,15.8-7,26.1-5.2,30.9c0.3,0.8,0.9,1.3,1.9,1.6c1,0.3,2.1,0.2,3.2-0.2c1.2-0.4,2.8-1.6,5-3.4c23.4-28.4,45.3-58.1,65.7-89.1
		c1.8,0.6,3,1.7,3.6,3.2c0.6,1.6,0.3,3.4-0.7,5.4c-1,2.1-2.5,5.1-4.6,9c-2,3.9-5.9,11.1-11.5,21.5c-5.6,10.4-11.1,19.8-16.3,28.3
		c-13.9,23.2-24.3,37.4-31.3,42.8c-2.5,1.8-5.7,3.4-9.6,4.8c-3.8,1.4-8.1,0.7-12.7-2c-4.6-2.7-8.2-7.5-10.6-14.2
		c-2.4-6.7-1.6-18,2.4-33.9c4.1-15.8,11.2-33.2,21.4-52c1-1.6,1.3-2.9,1-3.8c-0.3-0.9-2.2-0.8-5.4,0.4l-14.6,5.9
		c-20.8,7.6-32.4,9.1-34.7,4.7c-5.2,0.8-8.1,0.3-8.8-1.6c-0.2-0.6,0-1.1,0.6-1.4c0.6-0.3,1.1-0.6,1.6-0.8c0.4-0.2,1.2-0.7,2.2-1.2
		c1-0.6,9.2-5,24.6-13.2c15.4-8.2,33.1-16.9,53.2-26l8.3-27.5c0.3-2.2,3.2-4.4,8.8-6.4c5.6-2.1,8.9-1.9,9.7,0.4
		c0.3,0.8,0.2,2.4-0.3,4.9l-2.9,10.4c0.1,2.8,0.3,4.8,0.6,6.2C634.6,24.4,635.9,24.6,638.1,23.8z"/>
	<path class="st1" d="M664.9,117.5c5.4-2,9.2-7.1,11.4-15.5c2.2-8.3,3-16.3,2.4-23.8c-0.6-7.5-1.6-13.3-3.1-17.4
		c-0.4-1.1-1.4-1.3-3.1-0.7s-3.2,2.2-4.8,4.7l-22.1,34.9c-1.7,2.1-4,3.6-6.8,4.6c-2.8,1-4.6,0.5-5.3-1.5c-0.5-1.4-0.7-2.4-0.4-3
		c0.2-0.6,1.1-1.8,2.6-3.6c8.7-12.2,19.8-31,33.3-56.3c1.2-4,2.8-6.3,4.6-7c1.9-0.7,5.2-1.2,10-1.7c4.8-0.4,7.5,0.2,8.1,1.7
		c3.4,9.4,5.7,18.2,6.7,26.5c1.1,8.3,1.4,14.8,1.1,19.4c-0.3,4.6-0.5,7.1-0.3,7.4c0.1,0.3,0.3,0.4,0.6,0.3c0.3-0.1,0.9-0.6,1.6-1.4
		c9.6-10.2,21-25.4,34.3-45.5l4.1-6.3c1.8,0.6,3,1.7,3.6,3.2c0.6,1.6,0.4,3.2-0.6,5c-0.3,0.1-3.1,4.9-8.5,14.3
		c-5.4,9.4-11.4,19.7-18,30.9c-6.7,11.2-14.2,22-22.7,32.3c-8.5,10.4-15.7,16.6-21.6,18.8c-14.7,5.4-25.3-0.8-31.7-18.5
		c-0.5-1.4-0.4-2.9,0.4-4.5s2.1-2.7,3.9-3.4c0.3,0.8,1.2,1.8,2.6,3.2c1.5,1.3,2.9,2.4,4.2,3.1C654.9,119.6,659.5,119.5,664.9,117.5z
		"/>
</g>
</svg>
