<?xml version="1.0" encoding="utf-8"?>
<!-- Generator: Adobe Illustrator 21.0.2, SVG Export Plug-In . SVG Version: 6.00 Build 0)  -->
<svg version="1.1" id="Layer_1" xmlns="http://www.w3.org/2000/svg" xmlns:xlink="http://www.w3.org/1999/xlink" x="0px" y="0px"
	 viewBox="0 0 600.3 348.1" style="enable-background:new 0 0 600.3 348.1;" xml:space="preserve">
<style type="text/css">
	.st0{enable-background:new    ;}
	.st1{fill:#333333;}
</style>
<title>skills-title</title>
<g class="st0">
	<path class="st1" d="M123.8,234.8l-23.6,9.7c-14.7,5.4-24.8,8.5-30.3,9.3c-5.5,0.8-10.4,1.3-15,1.3s-8.3-0.4-11.3-1.5
		c-7.4-2.3-12.4-7.1-15.1-14.5c-0.8-2.2-0.7-6,0.4-11.3c1.1-5.4,3.8-12.2,8.1-20.6c4.3-8.4,10-16.9,17-25.6
		c7-8.7,17.2-17.7,30.4-27.2c13.2-9.4,28.4-17.6,45.4-24.5c6.1-2.2,12.8-3.8,20.2-4.8c7.4-1,13.6-1.3,18.8-0.9
		c5.2,0.4,10.3,2.1,15.2,5c5,2.9,8.4,7.1,10.4,12.6c1.6,4.4-0.9,10.6-7.6,18.7c-7.3,9.1-18.7,16.4-34.2,22
		c-15.4,5.6-23.5,7.3-24.3,5.1c-0.6-1.7,3.1-5.4,11.3-11c8.1-5.6,16.2-11.7,24.1-18.1c7.9-6.4,11.2-11.6,9.8-15.5
		c-0.7-2-4.6-1.8-11.4,0.7c-45.4,16.5-80.1,42.5-104.2,77.8c-4.5,6.8-6.1,11.8-4.9,15.1c1.9,5.2,19.1,1.8,51.7-10
		c29.4-10.3,46.9-7.8,52.5,7.5c4,11,0.3,24.1-10.9,39.4c-11.3,15.3-26,29.3-44.1,42.1c-18.1,12.8-36,22.5-53.7,29.1
		c-8.3,3-17.9,4-28.7,3C9,346.7,2.5,343,0.2,336.8c-0.7-2,0.6-3.8,4-5.2c17.7-8.8,28.8-15.3,33.1-19.5c1.1-0.8,2.1-1.3,2.9-1.6
		c0.8-0.3,1.2-0.3,1.3,0c0.2,0.6-0.3,2-1.7,4.1c-1.4,1.6-2.9,3.1-4.7,4.6c-3.8,3.2-5.6,5-5.5,5.4c0.2,0.5,1.8,0.1,5-1
		c3.1-1.1,10.6-5.3,22.4-12.4c11.8-7.1,24.2-15.3,37.3-24.5c13.1-9.2,24.1-18.7,33.1-28.5c9-9.8,12.5-17.4,10.6-22.8
		C136.6,232.1,131.9,231.9,123.8,234.8z"/>
	<path class="st1" d="M245.6,94.5c4.1-1.5,6.8-1.4,8.1,0.3c0.2,0.6-2,6.5-6.8,17.5c-4.8,11-11.3,26.2-19.6,45.5
		c-8.3,19.3-15.3,36.2-21,50.9c-0.5,0.7-0.5,1.4-0.3,2.2c0.3,0.8,0.6,1.1,1,1c0.4-0.1,0.8-0.6,1.2-1.5l6.4-10.3
		c4.9-6.4,10.7-12.6,17.3-18.5c6.6-6,12.5-9.9,17.7-11.8c3.5-0.2,7.2,0.9,11.1,3.4c1.9,0.9,3.2,2.3,3.9,4.2
		c2.1,5.6-2.3,15.4-12.9,29.2c-10.7,13.8-21.5,23.7-32.4,29.6c-0.1,0.2-0.1,0.4-0.1,0.6c0.5,1.3,5.8,4.3,16,9.2
		c10.2,4.9,17.8,7.8,22.7,8.6c3.9,0.4,6.3,0.4,7.2,0c0.7,0.1,1.2,0.4,1.4,0.8s-0.1,1.3-0.7,2.4c-2.5,4.3-5.7,7.1-9.4,8.5
		c-3.8,1.4-6.4,2.1-7.8,2.3c-1.4,0.2-2.9,0.3-4.3,0.2c-1.4,0-3.4-0.7-5.9-2c-2.5-1.3-5-2.6-7.5-3.9c-2.5-1.3-6.7-3.6-12.5-6.9
		c-5.8-3.3-11.8-6.5-17.9-9.6c-1-0.7-1.8-0.9-2.6-0.6c-0.8,0.3-1.4,1-1.9,2c-7,10.9-10.5,21.4-10.4,31.4c0.4,1.5-0.3,2.5-2,3.1
		l-0.2,0.1c-6.4,2.3-12,0.5-16.7-5.6c-0.6-1.6-0.7-4-0.3-7.3c6.1-25.1,13-46.9,20.7-65.5c7.7-18.6,22.1-49.6,43.4-93.2
		c2.2-3.6,3.7-6,4.3-7.2c0.7-1.1,1.4-2.2,2.1-3.3c0.8-1.1,1.4-1.8,2-2.2c1-1.1,2.5-2,4.4-2.6L245.6,94.5z M242.2,186.7
		c-3.1,1.3-7.5,5.4-13.2,12.3c-5.7,6.9-10.7,13.5-15,19.8l-6.2,9.2c-0.4,0.9-0.5,1.5-0.4,1.9c0.1,0.4,0.4,0.5,0.9,0.3
		c3.8-1.4,10.7-8.4,20.8-21c10.1-12.6,14.8-19.9,14.2-21.8L242.2,186.7z"/>
</g>
<g class="st0">
	<path class="st1" d="M290.6,213c-0.5,2.7-0.4,4.8,0.3,6.6c0.6,1.7,1.9,2.2,3.8,1.6c1.1-0.4,2.8-1.6,5.1-3.5
		c23.7-26,45.8-54.5,66.2-85.6c1.8,0.6,3,1.7,3.6,3.2c0.6,1.6,0.3,3.3-0.7,5.3c-1.1,2-2.5,4.8-4.5,8.5c-1.9,3.7-5.7,10.5-11.3,20.4
		c-5.6,9.9-11,18.9-15.9,27.1c-13.1,21.6-23.5,35.3-31.3,41.2c-2.5,1.8-5.4,3.3-8.7,4.5c-12.1,4.4-20.4,0.2-25.1-12.7
		c-1.8-5-1.7-13.2,0.4-24.5c2.1-11.3,4.7-21.6,7.9-30.8c3.2-9.2,5.6-14.6,7.2-16.1c2.2-2.7,4.9-4.7,8.2-5.9
		c3.3-1.2,6.6-1.7,10.1-1.5c1.1,0.1,1.8,0.6,2.1,1.4c0.3,0.8,0,2.2-0.9,4.3c-0.9,2.1-2.3,5.4-4.2,9.8c-1.9,4.4-4.3,11.7-7.4,22
		C292.2,198.5,290.7,206.7,290.6,213z M313.3,99.9c1.6-0.6,2.7-0.6,3.4-0.2c3.2,1.9,5,3.6,5.6,5.3s0.6,3.2,0.1,4.7
		c-0.5,1.5-1.2,3.3-2,5.2c-0.8,2-2.7,5-5.8,9c-3.1,4-6.5,6.7-10.2,8.1c-3,0.6-5-0.7-6.1-3.6c-1.7-4.7-0.6-10.3,3.5-16.8
		S309.7,101.2,313.3,99.9z"/>
</g>
<g class="st0">
	<path class="st1" d="M370.4,193.2c5.2-1.9,13.7-10.2,25.6-25c11.9-14.8,22.4-29.1,31.6-42.9l14-20.8c1.8,0.6,3,1.7,3.6,3.2
		c0.6,1.6,0.3,3.3-0.7,5.3c-1.1,2-2.5,4.8-4.5,8.5c-1.9,3.7-5.7,10.5-11.3,20.4c-5.6,9.9-11,18.9-15.9,27.1
		c-13.1,21.6-23.5,35.3-31.3,41.2c-2.5,1.8-5.3,3.3-8.3,4.3c-3,1.1-5.4,1.7-7.3,1.9c-1.9,0.2-4.1-0.2-6.8-1
		c-5.3-2-10.2-8.9-14.5-20.8c-1.2-3.3-1.6-8.8-1.2-16.6c0.4-7.8,2.1-17.6,5.1-29.5c3-11.9,7.1-24.2,12.4-37
		c5.2-12.7,12.8-26.3,22.7-40.7c9.9-14.4,21.4-27.4,34.4-38.9c2.1-1.6,4-2.8,5.9-3.5c1.9-0.7,3.9-0.5,6.1,0.6
		c2.2,1.1,3.9,2.4,5.1,3.9l2,1.9c1.3,3.6-1.4,13.5-8,29.8c-6.8,16.8-15.6,33.7-26.4,50.7c-10.8,17-21.1,31.8-31,44.7
		c-8,10.7-10.6,19.8-7.9,27.3C365.5,192.3,367.8,194.2,370.4,193.2z M373.9,136.9c3.9-1.4,12.3-15.4,25.1-41.8
		c12.8-26.5,18.8-40.8,18-43l-0.4-0.4l-3.3,3.3c-6.2,8.3-13.7,21.3-22.6,39.1c-8.9,17.8-14.6,31.2-17.1,40.3c-0.3,1-0.4,1.7-0.3,2.1
		C373.3,136.9,373.6,137,373.9,136.9z"/>
</g>
<g class="st0">
	<path class="st1" d="M447.7,165.1c5.2-1.9,13.7-10.2,25.6-25c11.9-14.8,22.4-29.1,31.6-42.9l14-20.8c1.8,0.6,3,1.7,3.6,3.2
		c0.6,1.6,0.3,3.3-0.7,5.3c-1.1,2-2.5,4.8-4.5,8.5c-1.9,3.7-5.7,10.5-11.3,20.4c-5.6,9.9-11,18.9-15.9,27.1
		c-13.1,21.6-23.5,35.3-31.3,41.2c-2.5,1.8-5.3,3.3-8.3,4.3c-3,1.1-5.4,1.7-7.3,1.9c-1.9,0.2-4.1-0.2-6.8-1
		c-5.3-2-10.2-8.9-14.5-20.8c-1.2-3.3-1.6-8.8-1.2-16.6c0.4-7.8,2.1-17.6,5.1-29.5c3-11.9,7.1-24.2,12.4-37
		c5.2-12.7,12.8-26.3,22.7-40.7c9.9-14.4,21.4-27.4,34.4-38.9c2.1-1.6,4-2.8,5.9-3.5c1.9-0.7,3.9-0.5,6.1,0.6
		c2.2,1.1,3.9,2.4,5.1,3.9l2,1.9c1.3,3.6-1.4,13.5-8,29.8c-6.8,16.8-15.6,33.7-26.4,50.7c-10.8,17-21.1,31.8-31,44.7
		c-8,10.7-10.6,19.8-7.9,27.3C442.8,164.1,445.1,166.1,447.7,165.1z M451.2,108.8c3.9-1.4,12.3-15.4,25.1-41.8
		c12.8-26.5,18.8-40.8,18-43l-0.4-0.4l-3.3,3.3c-6.2,8.3-13.7,21.3-22.6,39.1c-8.9,17.8-14.6,31.2-17.1,40.3c-0.3,1-0.4,1.7-0.3,2.1
		C450.6,108.7,450.8,108.9,451.2,108.8z"/>
</g>
<g class="st0">
	<path class="st1" d="M521.7,136.3c5.4-2,9.2-7.1,11.4-15.5c2.2-8.3,3-16.3,2.4-23.8c-0.6-7.5-1.6-13.3-3.1-17.4
		c-0.4-1.1-1.4-1.3-3.1-0.7c-1.6,0.6-3.3,2.2-4.8,4.7l-22.1,34.9c-1.7,2.1-4,3.6-6.8,4.6c-2.8,1-4.6,0.5-5.3-1.5
		c-0.5-1.4-0.7-2.4-0.4-3c0.2-0.6,1.1-1.8,2.6-3.6c8.7-12.2,19.8-31,33.3-56.3c1.2-4,2.8-6.3,4.6-7c1.9-0.7,5.2-1.2,10-1.7
		c4.8-0.4,7.5,0.2,8.1,1.7c3.4,9.4,5.7,18.2,6.7,26.5c1.1,8.3,1.4,14.8,1.1,19.4c-0.3,4.6-0.5,7.1-0.4,7.4c0.1,0.3,0.3,0.4,0.6,0.3
		c0.3-0.1,0.9-0.6,1.6-1.4c9.6-10.2,21-25.4,34.3-45.5l4.1-6.3c1.8,0.6,3,1.7,3.6,3.2c0.6,1.6,0.4,3.2-0.6,5
		c-0.3,0.1-3.1,4.9-8.5,14.3c-5.4,9.4-11.4,19.7-18,30.9c-6.7,11.2-14.2,22-22.7,32.3c-8.5,10.4-15.7,16.6-21.6,18.8
		c-14.7,5.4-25.3-0.8-31.7-18.5c-0.5-1.4-0.4-2.9,0.4-4.5c0.7-1.6,2.1-2.7,3.9-3.4c0.3,0.8,1.2,1.8,2.6,3.2c1.5,1.3,2.9,2.4,4.2,3.1
		C511.7,138.4,516.3,138.3,521.7,136.3z"/>
</g>
</svg>
